<svg xmlns="http://www.w3.org/2000/svg" width="960" height="280"><rect width="960" height="280" fill="#ffffffff"/><path fill="#aa4643ff" d="M71.5897 235.6 L71.5897 198.137 L100.923 198.137 L100.923 235.6 Z"/><path fill="#aa4643ff" d="M143.179 235.6 L143.179 195.256 L172.513 195.256 L172.513 235.6 Z"/><path fill="#aa4643ff" d="M214.769 235.6 L214.769 180.847 L244.103 180.847 L244.103 235.6 Z"/><path fill="#aa4643ff" d="M286.359 235.6 L286.359 153.951 L315.692 153.951 L315.692 235.6 Z"/><path fill="#aa4643ff" d="M357.949 235.6 L357.949 121.291 L387.282 121.291 L387.282 235.6 Z"/><path fill="#aa4643ff" d="M429.538 235.6 L429.538 89.5919 L458.872 89.5919 L458.872 235.6 Z"/><path fill="#aa4643ff" d="M501.128 235.6 L501.128 72.3014 L530.462 72.3014 L530.462 235.6 Z"/><path fill="#aa4643ff" d="M572.718 235.6 L572.718 76.1438 L602.051 76.1438 L602.051 235.6 Z"/><path fill="#aa4643ff" d="M644.308 235.6 L644.308 99.1977 L673.641 99.1977 L673.641 235.6 Z"/><path fill="#aa4643ff" d="M715.897 235.6 L715.897 136.66 L745.231 136.66 L745.231 235.6 Z"/><path fill="#aa4643ff" d="M787.487 235.6 L787.487 172.202 L816.821 172.202 L816.821 235.6 Z"/><path fill="#aa4643ff" d="M859.077 235.6 L859.077 189.492 L888.41 189.492 L888.41 235.6 Z"/><text x="67.827" y="185.337" fill="#000000ff" font-family="Arial,Helvetica,'Helvetica Neue',sans-serif" font-size="14.667" font-weight="500">3.9°C</text><text x="139.416" y="182.456" fill="#000000ff" font-family="Arial,Helvetica,'Helvetica Neue',sans-serif" font-size="14.667" font-weight="500">4.2°C</text><text x="211.006" y="168.047" fill="#000000ff" font-family="Arial,Helvetica,'Helvetica Neue',sans-serif" font-size="14.667" font-weight="500">5.7°C</text><text x="282.596" y="141.151" fill="#000000ff" font-family="Arial,Helvetica,'Helvetica Neue',sans-serif" font-size="14.667" font-weight="500">8.5°C</text><text x="350.654" y="108.491" fill="#000000ff" font-family="Arial,Helvetica,'Helvetica Neue',sans-serif" font-size="14.667" font-weight="500">11.9°C</text><text x="421.697" y="76.792" fill="#000000ff" font-family="Arial,Helvetica,'Helvetica Neue',sans-serif" font-size="14.667" font-weight="500">15.2°C</text><text x="493.287" y="59.501" fill="#000000ff" font-family="Arial,Helvetica,'Helvetica Neue',sans-serif" font-size="14.667" font-weight="500">17.0°C</text><text x="564.877" y="63.344" fill="#000000ff" font-family="Arial,Helvetica,'Helvetica Neue',sans-serif" font-size="14.667" font-weight="500">16.6°C</text><text x="636.467" y="86.398" fill="#000000ff" font-family="Arial,Helvetica,'Helvetica Neue',sans-serif" font-size="14.667" font-weight="500">14.2°C</text><text x="708.056" y="123.86" fill="#000000ff" font-family="Arial,Helvetica,'Helvetica Neue',sans-serif" font-size="14.667" font-weight="500">10.3°C</text><text x="783.724" y="159.402" fill="#000000ff" font-family="Arial,Helvetica,'Helvetica Neue',sans-serif" font-size="14.667" font-weight="500">6.6°C</text><text x="855.314" y="176.692" fill="#000000ff" font-family="Arial,Helvetica,'Helvetica Neue',sans-serif" font-size="14.667" font-weight="500">4.8°C</text><text x="54.267" y="46.267" fill="#000000ff" font-family="Arial,Helvetica,'Helvetica Neue',sans-serif" font-size="14.667" font-weight="500">London - Average Monthly Temperature</text><path fill="#aa4643ff" d="M40.3333 46.7667 C37.2958 46.7667 34.8333 44.3042 34.8333 41.2667 C34.8333 38.2291 37.2958 35.7667 40.3333 35.7667 C43.3709 35.7667 45.8333 38.2291 45.8333 41.2667 C45.8333 44.3042 43.3709 46.7667 40.3333 46.7667 Z"/><path fill="none" stroke="#000000ff" stroke-width="1.333" d="M14.6667 235.6 L945.333 235.6"/><path fill="none" stroke="#000000ff" stroke-width="1.333" d="M86.2564 235.6 L86.2564 230.267"/><path fill="none" stroke="#000000ff" stroke-width="1.333" d="M157.846 235.6 L157.846 230.267"/><path fill="none" stroke="#000000ff" stroke-width="1.333" d="M229.436 235.6 L229.436 230.267"/><path fill="none" stroke="#000000ff" stroke-width="1.333" d="M301.026 235.6 L301.026 230.267"/><path fill="none" stroke="#000000ff" stroke-width="1.333" d="M372.615 235.6 L372.615 230.267"/><path fill="none" stroke="#000000ff" stroke-width="1.333" d="M444.205 235.6 L444.205 230.267"/><path fill="none" stroke="#000000ff" stroke-width="1.333" d="M515.795 235.6 L515.795 230.267"/><path fill="none" stroke="#000000ff" stroke-width="1.333" d="M587.385 235.6 L587.385 230.267"/><path fill="none" stroke="#000000ff" stroke-width="1.333" d="M658.974 235.6 L658.974 230.267"/><path fill="none" stroke="#000000ff" stroke-width="1.333" d="M730.564 235.6 L730.564 230.267"/><path fill="none" stroke="#000000ff" stroke-width="1.333" d="M802.154 235.6 L802.154 230.267"/><path fill="none" stroke="#000000ff" stroke-width="1.333" d="M873.744 235.6 L873.744 230.267"/><text x="74.428" y="261.333" fill="#000000ff" font-family="Arial,Helvetica,'Helvetica Neue',sans-serif" font-size="14.667" font-weight="500">Jan</text><text x="145.206" y="261.333" fill="#000000ff" font-family="Arial,Helvetica,'Helvetica Neue',sans-serif" font-size="14.667" font-weight="500">Feb</text><text x="216.803" y="261.333" fill="#000000ff" font-family="Arial,Helvetica,'Helvetica Neue',sans-serif" font-size="14.667" font-weight="500">Mar</text><text x="289.612" y="261.333" fill="#000000ff" font-family="Arial,Helvetica,'Helvetica Neue',sans-serif" font-size="14.667" font-weight="500">Apr</text><text x="358.756" y="261.333" fill="#000000ff" font-family="Arial,Helvetica,'Helvetica Neue',sans-serif" font-size="14.667" font-weight="500">May</text><text x="432.377" y="261.333" fill="#000000ff" font-family="Arial,Helvetica,'Helvetica Neue',sans-serif" font-size="14.667" font-weight="500">Jun</text><text x="506.412" y="261.333" fill="#000000ff" font-family="Arial,Helvetica,'Helvetica Neue',sans-serif" font-size="14.667" font-weight="500">Jul</text><text x="574.338" y="261.333" fill="#000000ff" font-family="Arial,Helvetica,'Helvetica Neue',sans-serif" font-size="14.667" font-weight="500">Aug</text><text x="645.927" y="261.333" fill="#000000ff" font-family="Arial,Helvetica,'Helvetica Neue',sans-serif" font-size="14.667" font-weight="500">Sep</text><text x="719.15" y="261.333" fill="#000000ff" font-family="Arial,Helvetica,'Helvetica Neue',sans-serif" font-size="14.667" font-weight="500">Oct</text><text x="789.107" y="261.333" fill="#000000ff" font-family="Arial,Helvetica,'Helvetica Neue',sans-serif" font-size="14.667" font-weight="500">Nov</text><text x="860.697" y="261.333" fill="#000000ff" font-family="Arial,Helvetica,'Helvetica Neue',sans-serif" font-size="14.667" font-weight="500">Dec</text></svg>