<svg xmlns="http://www.w3.org/2000/svg" width="2048" height="800"><rect width="2048" height="800" fill="#ffffffff"/><path fill="#4c7bb0ff" d="M326.875 716.037 L1634.01 716.037 L1634.01 664.704 L326.875 664.704 Z"/><path fill="#4c7bb0ff" d="M326.875 643.444 L1114.22 643.444 L1114.22 592.111 L326.875 592.111 Z"/><path fill="#4c7bb0ff" d="M326.875 570.852 L673.312 570.852 L673.312 519.519 L326.875 519.519 Z"/><path fill="#4c7bb0ff" d="M326.875 498.259 L570.911 498.259 L570.911 446.926 L326.875 446.926 Z"/><path fill="#4c7bb0ff" d="M326.875 425.667 L512.657 425.667 L512.657 374.333 L326.875 374.333 Z"/><path fill="#4c7bb0ff" d="M326.875 353.074 L499.883 353.074 L499.883 301.741 L326.875 301.741 Z"/><path fill="#4c7bb0ff" d="M326.875 280.481 L485.425 280.481 L485.425 229.148 L326.875 229.148 Z"/><path fill="#4c7bb0ff" d="M326.875 207.889 L457.28 207.889 L457.28 156.556 L326.875 156.556 Z"/><path fill="#4c7bb0ff" d="M326.875 135.296 L452.858 135.296 L452.858 83.963 L326.875 83.963 Z"/><text x="1656.015" y="703.37" fill="#000000ff" font-family="Arial,Helvetica,'Helvetica Neue',sans-serif" font-size="36.667" font-weight="500">$18,624bln</text><text x="1136.219" y="630.778" fill="#000000ff" font-family="Arial,Helvetica,'Helvetica Neue',sans-serif" font-size="36.667" font-weight="500">$11,218bln</text><text x="695.312" y="558.185" fill="#000000ff" font-family="Arial,Helvetica,'Helvetica Neue',sans-serif" font-size="36.667" font-weight="500">$11,218bln</text><text x="592.911" y="485.593" fill="#000000ff" font-family="Arial,Helvetica,'Helvetica Neue',sans-serif" font-size="36.667" font-weight="500">$11,218bln</text><text x="534.657" y="413" fill="#000000ff" font-family="Arial,Helvetica,'Helvetica Neue',sans-serif" font-size="36.667" font-weight="500">$11,218bln</text><text x="521.883" y="340.407" fill="#000000ff" font-family="Arial,Helvetica,'Helvetica Neue',sans-serif" font-size="36.667" font-weight="500">$2,465bln</text><text x="507.425" y="267.815" fill="#000000ff" font-family="Arial,Helvetica,'Helvetica Neue',sans-serif" font-size="36.667" font-weight="500">$2.259bln</text><text x="479.28" y="195.222" fill="#000000ff" font-family="Arial,Helvetica,'Helvetica Neue',sans-serif" font-size="36.667" font-weight="500">$1.858bln</text><text x="474.858" y="122.63" fill="#000000ff" font-family="Arial,Helvetica,'Helvetica Neue',sans-serif" font-size="36.667" font-weight="500">$1.795bln</text><path fill="none" stroke="#000000ff" stroke-width="3.333" d="M326.875 726.667 L326.875 73.3333"/><path fill="none" stroke="#000000ff" stroke-width="3.333" d="M326.875 726.667 L340.208 726.667"/><path fill="none" stroke="#000000ff" stroke-width="3.333" d="M326.875 654.074 L340.208 654.074"/><path fill="none" stroke="#000000ff" stroke-width="3.333" d="M326.875 581.481 L340.208 581.481"/><path fill="none" stroke="#000000ff" stroke-width="3.333" d="M326.875 508.889 L340.208 508.889"/><path fill="none" stroke="#000000ff" stroke-width="3.333" d="M326.875 436.296 L340.208 436.296"/><path fill="none" stroke="#000000ff" stroke-width="3.333" d="M326.875 363.704 L340.208 363.704"/><path fill="none" stroke="#000000ff" stroke-width="3.333" d="M326.875 291.111 L340.208 291.111"/><path fill="none" stroke="#000000ff" stroke-width="3.333" d="M326.875 218.519 L340.208 218.519"/><path fill="none" stroke="#000000ff" stroke-width="3.333" d="M326.875 145.926 L340.208 145.926"/><path fill="none" stroke="#000000ff" stroke-width="3.333" d="M326.875 73.3333 L340.208 73.3333"/><text x="77.417" y="703.37" fill="#000000ff" font-family="Arial,Helvetica,'Helvetica Neue',sans-serif" font-size="36.667" font-weight="500">United States</text><text x="201.745" y="630.778" fill="#000000ff" font-family="Arial,Helvetica,'Helvetica Neue',sans-serif" font-size="36.667" font-weight="500">China</text><text x="197.635" y="558.185" fill="#000000ff" font-family="Arial,Helvetica,'Helvetica Neue',sans-serif" font-size="36.667" font-weight="500">Japan</text><text x="146.729" y="485.593" fill="#000000ff" font-family="Arial,Helvetica,'Helvetica Neue',sans-serif" font-size="36.667" font-weight="500">Germany</text><text x="36.667" y="413" fill="#000000ff" font-family="Arial,Helvetica,'Helvetica Neue',sans-serif" font-size="36.667" font-weight="500">United Kingdom</text><text x="183.401" y="340.407" fill="#000000ff" font-family="Arial,Helvetica,'Helvetica Neue',sans-serif" font-size="36.667" font-weight="500">France</text><text x="218.042" y="267.815" fill="#000000ff" font-family="Arial,Helvetica,'Helvetica Neue',sans-serif" font-size="36.667" font-weight="500">India</text><text x="230.292" y="195.222" fill="#000000ff" font-family="Arial,Helvetica,'Helvetica Neue',sans-serif" font-size="36.667" font-weight="500">Italy</text><text x="205.854" y="122.63" fill="#000000ff" font-family="Arial,Helvetica,'Helvetica Neue',sans-serif" font-size="36.667" font-weight="500">Brazil</text></svg>