<svg xmlns="http://www.w3.org/2000/svg" width="2048" height="800"><rect width="2048" height="800" fill="#ffffffff"/><path fill="none" stroke="#eeeeeeff" stroke-width="3.333" d="M100.693 146.815 L2011.33 146.815"/><path fill="none" stroke="#eeeeeeff" stroke-width="3.333" d="M100.693 214.963 L2011.33 214.963"/><path fill="none" stroke="#eeeeeeff" stroke-width="3.333" d="M100.693 283.111 L2011.33 283.111"/><path fill="none" stroke="#eeeeeeff" stroke-width="3.333" d="M100.693 351.259 L2011.33 351.259"/><path fill="none" stroke="#eeeeeeff" stroke-width="3.333" d="M100.693 419.407 L2011.33 419.407"/><path fill="none" stroke="#eeeeeeff" stroke-width="3.333" d="M100.693 487.556 L2011.33 487.556"/><path fill="none" stroke="#eeeeeeff" stroke-width="3.333" d="M100.693 555.704 L2011.33 555.704"/><path fill="none" stroke="#eeeeeeff" stroke-width="3.333" d="M100.693 623.852 L2011.33 623.852"/><path fill="#f92d23ff" d="M196.225 644.296 L291.757 603.407 L482.821 576.148 L673.885 508 L864.949 433.037 L1056.01 426.222 L1247.08 337.63 L1438.14 289.926 L1629.21 364.889 L1820.27 283.111 L2011.33 249.037 L2011.33 692 L1820.27 692 L1629.21 692 L1438.14 692 L1247.08 692 L1056.01 692 L864.949 692 L673.885 692 L482.821 692 L291.757 692 L196.225 692 Z"/><path fill="none" stroke="#0000007f" stroke-width="2" d="M196.225 644.296 L291.757 603.407 L482.821 576.148 L673.885 508 L864.949 433.037 L1056.01 426.222 L1247.08 337.63 L1438.14 289.926 L1629.21 364.889 L1820.27 283.111 L2011.33 249.037"/><path fill="none" stroke="#0000007f" stroke-width="2" d="M2011.33 692 L1820.27 692 L1629.21 692 L1438.14 692 L1247.08 692 L1056.01 692 L864.949 692 L673.885 692 L482.821 692 L291.757 692 L196.225 692"/><path fill="#f5a325ff" d="M196.225 664.741 L291.757 610.222 L482.821 589.778 L673.885 542.074 L864.949 453.481 L1056.01 433.037 L1247.08 371.704 L1438.14 371.704 L1629.21 405.778 L1820.27 330.815 L2011.33 283.111 L2011.33 692 L1820.27 692 L1629.21 692 L1438.14 692 L1247.08 692 L1056.01 692 L864.949 692 L673.885 692 L482.821 692 L291.757 692 L196.225 692 Z"/><path fill="none" stroke="#00000066" stroke-width="2" d="M196.225 664.741 L291.757 610.222 L482.821 589.778 L673.885 542.074 L864.949 453.481 L1056.01 433.037 L1247.08 371.704 L1438.14 371.704 L1629.21 405.778 L1820.27 330.815 L2011.33 283.111"/><path fill="none" stroke="#00000066" stroke-width="2" d="M2011.33 692 L1820.27 692 L1629.21 692 L1438.14 692 L1247.08 692 L1056.01 692 L864.949 692 L673.885 692 L482.821 692 L291.757 692 L196.225 692"/><path fill="#efeb52ff" d="M196.225 671.556 L291.757 623.852 L482.821 623.852 L673.885 569.333 L864.949 473.926 L1056.01 460.296 L1247.08 405.778 L1438.14 419.407 L1629.21 446.667 L1820.27 378.519 L2011.33 324 L2011.33 692 L1820.27 692 L1629.21 692 L1438.14 692 L1247.08 692 L1056.01 692 L864.949 692 L673.885 692 L482.821 692 L291.757 692 L196.225 692 Z"/><path fill="none" stroke="#0000007f" stroke-width="2" d="M196.225 671.556 L291.757 623.852 L482.821 623.852 L673.885 569.333 L864.949 473.926 L1056.01 460.296 L1247.08 405.778 L1438.14 419.407 L1629.21 446.667 L1820.27 378.519 L2011.33 324"/><path fill="none" stroke="#0000007f" stroke-width="2" d="M2011.33 692 L1820.27 692 L1629.21 692 L1438.14 692 L1247.08 692 L1056.01 692 L864.949 692 L673.885 692 L482.821 692 L291.757 692 L196.225 692"/><path fill="#75c042ff" d="M196.225 678.37 L291.757 651.111 L482.821 651.111 L673.885 637.481 L864.949 569.333 L1056.01 555.704 L1247.08 487.556 L1438.14 487.556 L1629.21 487.556 L1820.27 446.667 L2011.33 453.481 L2011.33 692 L1820.27 692 L1629.21 692 L1438.14 692 L1247.08 692 L1056.01 692 L864.949 692 L673.885 692 L482.821 692 L291.757 692 L196.225 692 Z"/><path fill="none" stroke="#0000007f" stroke-width="2" d="M196.225 678.37 L291.757 651.111 L482.821 651.111 L673.885 637.481 L864.949 569.333 L1056.01 555.704 L1247.08 487.556 L1438.14 487.556 L1629.21 487.556 L1820.27 446.667 L2011.33 453.481"/><path fill="none" stroke="#0000007f" stroke-width="2" d="M2011.33 692 L1820.27 692 L1629.21 692 L1438.14 692 L1247.08 692 L1056.01 692 L864.949 692 L673.885 692 L482.821 692 L291.757 692 L196.225 692"/><path fill="#6a88c4ff" d="M196.225 685.185 L291.757 678.37 L482.821 664.741 L673.885 644.296 L864.949 603.407 L1056.01 589.778 L1247.08 555.704 L1438.14 582.963 L1629.21 569.333 L1820.27 535.259 L2011.33 569.333 L2011.33 692 L1820.27 692 L1629.21 692 L1438.14 692 L1247.08 692 L1056.01 692 L864.949 692 L673.885 692 L482.821 692 L291.757 692 L196.225 692 Z"/><path fill="none" stroke="#0000007f" stroke-width="2" d="M196.225 685.185 L291.757 678.37 L482.821 664.741 L673.885 644.296 L864.949 603.407 L1056.01 589.778 L1247.08 555.704 L1438.14 582.963 L1629.21 569.333 L1820.27 535.259 L2011.33 569.333"/><path fill="none" stroke="#0000007f" stroke-width="2" d="M2011.33 692 L1820.27 692 L1629.21 692 L1438.14 692 L1247.08 692 L1056.01 692 L864.949 692 L673.885 692 L482.821 692 L291.757 692 L196.225 692"/><text x="141.026" y="70.667" fill="#000000ff" font-family="Arial,Helvetica,'Helvetica Neue',sans-serif" font-size="36.667" font-weight="500">Series A</text><path fill="#6a88c4ff" d="M106.193 71.4167 C98.5988 71.4167 92.4427 65.2606 92.4427 57.6667 C92.4427 50.0728 98.5988 43.9167 106.193 43.9167 C113.787 43.9167 119.943 50.0728 119.943 57.6667 C119.943 65.2606 113.787 71.4167 106.193 71.4167 Z"/><text x="369.255" y="70.667" fill="#000000ff" font-family="Arial,Helvetica,'Helvetica Neue',sans-serif" font-size="36.667" font-weight="500">Series B</text><path fill="#75c042ff" d="M334.422 71.4167 C326.828 71.4167 320.672 65.2606 320.672 57.6667 C320.672 50.0728 326.828 43.9167 334.422 43.9167 C342.016 43.9167 348.172 50.0728 348.172 57.6667 C348.172 65.2606 342.016 71.4167 334.422 71.4167 Z"/><text x="599.5" y="70.667" fill="#000000ff" font-family="Arial,Helvetica,'Helvetica Neue',sans-serif" font-size="36.667" font-weight="500">Series C</text><path fill="#efeb52ff" d="M564.667 71.4167 C557.073 71.4167 550.917 65.2606 550.917 57.6667 C550.917 50.0728 557.073 43.9167 564.667 43.9167 C572.261 43.9167 578.417 50.0728 578.417 57.6667 C578.417 65.2606 572.261 71.4167 564.667 71.4167 Z"/><text x="831.776" y="70.667" fill="#000000ff" font-family="Arial,Helvetica,'Helvetica Neue',sans-serif" font-size="36.667" font-weight="500">Series D</text><path fill="#f5a325ff" d="M796.943 71.4167 C789.349 71.4167 783.193 65.2606 783.193 57.6667 C783.193 50.0728 789.349 43.9167 796.943 43.9167 C804.537 43.9167 810.693 50.0728 810.693 57.6667 C810.693 65.2606 804.537 71.4167 796.943 71.4167 Z"/><text x="1064.052" y="70.667" fill="#000000ff" font-family="Arial,Helvetica,'Helvetica Neue',sans-serif" font-size="36.667" font-weight="500">Series E</text><path fill="#f92d23ff" d="M1029.22 71.4167 C1021.62 71.4167 1015.47 65.2606 1015.47 57.6667 C1015.47 50.0728 1021.62 43.9167 1029.22 43.9167 C1036.81 43.9167 1042.97 50.0728 1042.97 57.6667 C1042.97 65.2606 1036.81 71.4167 1029.22 71.4167 Z"/><path fill="none" stroke="#000000ff" stroke-width="3.333" d="M100.693 692 L2011.33 692"/><path fill="none" stroke="#000000ff" stroke-width="3.333" d="M100.693 692 L100.693 678.667"/><path fill="none" stroke="#000000ff" stroke-width="3.333" d="M291.757 692 L291.757 678.667"/><path fill="none" stroke="#000000ff" stroke-width="3.333" d="M482.821 692 L482.821 678.667"/><path fill="none" stroke="#000000ff" stroke-width="3.333" d="M673.885 692 L673.885 678.667"/><path fill="none" stroke="#000000ff" stroke-width="3.333" d="M864.949 692 L864.949 678.667"/><path fill="none" stroke="#000000ff" stroke-width="3.333" d="M1056.01 692 L1056.01 678.667"/><path fill="none" stroke="#000000ff" stroke-width="3.333" d="M1247.08 692 L1247.08 678.667"/><path fill="none" stroke="#000000ff" stroke-width="3.333" d="M1438.14 692 L1438.14 678.667"/><path fill="none" stroke="#000000ff" stroke-width="3.333" d="M1629.21 692 L1629.21 678.667"/><path fill="none" stroke="#000000ff" stroke-width="3.333" d="M1820.27 692 L1820.27 678.667"/><path fill="none" stroke="#000000ff" stroke-width="3.333" d="M2011.33 692 L2011.33 678.667"/><text x="75.208" y="755.333" fill="#000000ff" font-family="Arial,Helvetica,'Helvetica Neue',sans-serif" font-size="36.667" font-weight="500">0.0</text><text x="256.077" y="755.333" fill="#000000ff" font-family="Arial,Helvetica,'Helvetica Neue',sans-serif" font-size="36.667" font-weight="500">10.0</text><text x="447.141" y="755.333" fill="#000000ff" font-family="Arial,Helvetica,'Helvetica Neue',sans-serif" font-size="36.667" font-weight="500">20.0</text><text x="638.205" y="755.333" fill="#000000ff" font-family="Arial,Helvetica,'Helvetica Neue',sans-serif" font-size="36.667" font-weight="500">30.0</text><text x="829.269" y="755.333" fill="#000000ff" font-family="Arial,Helvetica,'Helvetica Neue',sans-serif" font-size="36.667" font-weight="500">40.0</text><text x="1020.333" y="755.333" fill="#000000ff" font-family="Arial,Helvetica,'Helvetica Neue',sans-serif" font-size="36.667" font-weight="500">50.0</text><text x="1211.397" y="755.333" fill="#000000ff" font-family="Arial,Helvetica,'Helvetica Neue',sans-serif" font-size="36.667" font-weight="500">60.0</text><text x="1402.461" y="755.333" fill="#000000ff" font-family="Arial,Helvetica,'Helvetica Neue',sans-serif" font-size="36.667" font-weight="500">70.0</text><text x="1593.526" y="755.333" fill="#000000ff" font-family="Arial,Helvetica,'Helvetica Neue',sans-serif" font-size="36.667" font-weight="500">80.0</text><text x="1784.59" y="755.333" fill="#000000ff" font-family="Arial,Helvetica,'Helvetica Neue',sans-serif" font-size="36.667" font-weight="500">90.0</text><text x="1965.458" y="755.333" fill="#000000ff" font-family="Arial,Helvetica,'Helvetica Neue',sans-serif" font-size="36.667" font-weight="500">100.0</text><text x="100.693" y="636.852" fill="#666666ff" font-family="Arial,Helvetica,'Helvetica Neue',sans-serif" font-size="36.667" font-weight="500">10.0</text><text x="100.693" y="568.704" fill="#666666ff" font-family="Arial,Helvetica,'Helvetica Neue',sans-serif" font-size="36.667" font-weight="500">20.0</text><text x="100.693" y="500.556" fill="#666666ff" font-family="Arial,Helvetica,'Helvetica Neue',sans-serif" font-size="36.667" font-weight="500">30.0</text><text x="100.693" y="432.407" fill="#666666ff" font-family="Arial,Helvetica,'Helvetica Neue',sans-serif" font-size="36.667" font-weight="500">40.0</text><text x="100.693" y="364.259" fill="#666666ff" font-family="Arial,Helvetica,'Helvetica Neue',sans-serif" font-size="36.667" font-weight="500">50.0</text><text x="100.693" y="296.111" fill="#666666ff" font-family="Arial,Helvetica,'Helvetica Neue',sans-serif" font-size="36.667" font-weight="500">60.0</text><text x="100.693" y="227.963" fill="#666666ff" font-family="Arial,Helvetica,'Helvetica Neue',sans-serif" font-size="36.667" font-weight="500">70.0</text><text x="100.693" y="159.815" fill="#666666ff" font-family="Arial,Helvetica,'Helvetica Neue',sans-serif" font-size="36.667" font-weight="500">80.0</text></svg>