<svg xmlns="http://www.w3.org/2000/svg" width="1200" height="90" viewBox="0 0 1200 90"><rect width="1200" height="90" fill="#fff"/><path fill="none" stroke="#333" stroke-width="1.333" d="M20.0 40.266667 L1180.0 40.266667"/><path fill="none" stroke="#333" stroke-width="1.333" d="M20.0 40.266667 L20.0 34.933333"/><path fill="none" stroke="#333" stroke-width="1.333" d="M148.88889 40.266667 L148.88889 34.933333"/><path fill="none" stroke="#333" stroke-width="1.333" d="M277.77778 40.266667 L277.77778 34.933333"/><path fill="none" stroke="#333" stroke-width="1.333" d="M406.666678 40.266667 L406.666678 34.933333"/><path fill="none" stroke="#333" stroke-width="1.333" d="M535.555559 40.266667 L535.555559 34.933333"/><path fill="none" stroke="#333" stroke-width="1.333" d="M664.444475 40.266667 L664.444475 34.933333"/><path fill="none" stroke="#333" stroke-width="1.333" d="M793.333356 40.266667 L793.333356 34.933333"/><path fill="none" stroke="#333" stroke-width="1.333" d="M922.222238 40.266667 L922.222238 34.933333"/><path fill="none" stroke="#333" stroke-width="1.333" d="M1051.111119 40.266667 L1051.111119 34.933333"/><path fill="none" stroke="#333" stroke-width="1.333" d="M1180.0 40.266667 L1180.0 34.933333"/><text x="9.805" y="66" fill="#333" font-family="Arial,Helvetica,'Helvetica Neue',sans-serif" font-size="14.667">0.0</text><text x="138.694" y="66" fill="#333" font-family="Arial,Helvetica,'Helvetica Neue',sans-serif" font-size="14.667">1.8</text><text x="267.582" y="66" fill="#333" font-family="Arial,Helvetica,'Helvetica Neue',sans-serif" font-size="14.667">3.6</text><text x="396.471" y="66" fill="#333" font-family="Arial,Helvetica,'Helvetica Neue',sans-serif" font-size="14.667">5.3</text><text x="525.36" y="66" fill="#333" font-family="Arial,Helvetica,'Helvetica Neue',sans-serif" font-size="14.667">7.1</text><text x="654.249" y="66" fill="#333" font-family="Arial,Helvetica,'Helvetica Neue',sans-serif" font-size="14.667">8.9</text><text x="779.06" y="66" fill="#333" font-family="Arial,Helvetica,'Helvetica Neue',sans-serif" font-size="14.667">10.7</text><text x="907.949" y="66" fill="#333" font-family="Arial,Helvetica,'Helvetica Neue',sans-serif" font-size="14.667">12.4</text><text x="1036.838" y="66" fill="#333" font-family="Arial,Helvetica,'Helvetica Neue',sans-serif" font-size="14.667">14.2</text><text x="1165.727" y="66" fill="#333" font-family="Arial,Helvetica,'Helvetica Neue',sans-serif" font-size="14.667">16.0</text></svg>