<svg xmlns="http://www.w3.org/2000/svg" width="1200" height="90" viewBox="0 0 1200 90"><rect width="1200" height="90" fill="#fff"/><path fill="none" stroke="#333" stroke-width="1.333" d="M20.0 40.266667 L1180.0 40.266667"/><path fill="none" stroke="#333" stroke-width="1.333" d="M56.25 40.266667 L56.25 34.933333"/><path fill="none" stroke="#333" stroke-width="1.333" d="M56.25 40.266667 L56.25 34.933333"/><path fill="none" stroke="#333" stroke-width="1.333" d="M128.75 40.266667 L128.75 34.933333"/><path fill="none" stroke="#333" stroke-width="1.333" d="M128.75 40.266667 L128.75 34.933333"/><path fill="none" stroke="#333" stroke-width="1.333" d="M201.25 40.266667 L201.25 34.933333"/><path fill="none" stroke="#333" stroke-width="1.333" d="M201.25 40.266667 L201.25 34.933333"/><path fill="none" stroke="#333" stroke-width="1.333" d="M273.75 40.266667 L273.75 34.933333"/><path fill="none" stroke="#333" stroke-width="1.333" d="M273.75 40.266667 L273.75 34.933333"/><path fill="none" stroke="#333" stroke-width="1.333" d="M346.25 40.266667 L346.25 34.933333"/><path fill="none" stroke="#333" stroke-width="1.333" d="M346.25 40.266667 L346.25 34.933333"/><path fill="none" stroke="#333" stroke-width="1.333" d="M418.75 40.266667 L418.75 34.933333"/><path fill="none" stroke="#333" stroke-width="1.333" d="M418.75 40.266667 L418.75 34.933333"/><path fill="none" stroke="#333" stroke-width="1.333" d="M491.25 40.266667 L491.25 34.933333"/><path fill="none" stroke="#333" stroke-width="1.333" d="M491.25 40.266667 L491.25 34.933333"/><path fill="none" stroke="#333" stroke-width="1.333" d="M563.75 40.266667 L563.75 34.933333"/><path fill="none" stroke="#333" stroke-width="1.333" d="M563.75 40.266667 L563.75 34.933333"/><path fill="none" stroke="#333" stroke-width="1.333" d="M636.25 40.266667 L636.25 34.933333"/><path fill="none" stroke="#333" stroke-width="1.333" d="M636.25 40.266667 L636.25 34.933333"/><path fill="none" stroke="#333" stroke-width="1.333" d="M708.75 40.266667 L708.75 34.933333"/><path fill="none" stroke="#333" stroke-width="1.333" d="M708.75 40.266667 L708.75 34.933333"/><path fill="none" stroke="#333" stroke-width="1.333" d="M781.25 40.266667 L781.25 34.933333"/><path fill="none" stroke="#333" stroke-width="1.333" d="M781.25 40.266667 L781.25 34.933333"/><path fill="none" stroke="#333" stroke-width="1.333" d="M853.75 40.266667 L853.75 34.933333"/><path fill="none" stroke="#333" stroke-width="1.333" d="M853.75 40.266667 L853.75 34.933333"/><path fill="none" stroke="#333" stroke-width="1.333" d="M926.25 40.266667 L926.25 34.933333"/><path fill="none" stroke="#333" stroke-width="1.333" d="M926.25 40.266667 L926.25 34.933333"/><path fill="none" stroke="#333" stroke-width="1.333" d="M998.75 40.266667 L998.75 34.933333"/><path fill="none" stroke="#333" stroke-width="1.333" d="M998.75 40.266667 L998.75 34.933333"/><path fill="none" stroke="#333" stroke-width="1.333" d="M1071.25 40.266667 L1071.25 34.933333"/><path fill="none" stroke="#333" stroke-width="1.333" d="M1071.25 40.266667 L1071.25 34.933333"/><path fill="none" stroke="#333" stroke-width="1.333" d="M1143.75 40.266667 L1143.75 34.933333"/><path fill="none" stroke="#333" stroke-width="1.333" d="M1143.75 40.266667 L1143.75 34.933333"/><text x="82.305" y="66" fill="#333" font-family="Arial,Helvetica,'Helvetica Neue',sans-serif" font-size="14.667">1.0</text><text x="154.805" y="66" fill="#333" font-family="Arial,Helvetica,'Helvetica Neue',sans-serif" font-size="14.667">2.0</text><text x="227.305" y="66" fill="#333" font-family="Arial,Helvetica,'Helvetica Neue',sans-serif" font-size="14.667">3.0</text><text x="299.805" y="66" fill="#333" font-family="Arial,Helvetica,'Helvetica Neue',sans-serif" font-size="14.667">4.0</text><text x="372.305" y="66" fill="#333" font-family="Arial,Helvetica,'Helvetica Neue',sans-serif" font-size="14.667">5.0</text><text x="444.805" y="66" fill="#333" font-family="Arial,Helvetica,'Helvetica Neue',sans-serif" font-size="14.667">6.0</text><text x="517.305" y="66" fill="#333" font-family="Arial,Helvetica,'Helvetica Neue',sans-serif" font-size="14.667">7.0</text><text x="589.805" y="66" fill="#333" font-family="Arial,Helvetica,'Helvetica Neue',sans-serif" font-size="14.667">8.0</text><text x="662.305" y="66" fill="#333" font-family="Arial,Helvetica,'Helvetica Neue',sans-serif" font-size="14.667">9.0</text><text x="730.727" y="66" fill="#333" font-family="Arial,Helvetica,'Helvetica Neue',sans-serif" font-size="14.667">10.0</text><text x="803.773" y="66" fill="#333" font-family="Arial,Helvetica,'Helvetica Neue',sans-serif" font-size="14.667">11.0</text><text x="875.727" y="66" fill="#333" font-family="Arial,Helvetica,'Helvetica Neue',sans-serif" font-size="14.667">12.0</text><text x="948.227" y="66" fill="#333" font-family="Arial,Helvetica,'Helvetica Neue',sans-serif" font-size="14.667">13.0</text><text x="1020.727" y="66" fill="#333" font-family="Arial,Helvetica,'Helvetica Neue',sans-serif" font-size="14.667">14.0</text><text x="1093.227" y="66" fill="#333" font-family="Arial,Helvetica,'Helvetica Neue',sans-serif" font-size="14.667">15.0</text></svg>