<svg xmlns="http://www.w3.org/2000/svg" width="1200" height="90" viewBox="0 0 1200 90"><rect width="1200" height="90" fill="#fff"/><path fill="none" stroke="#333" stroke-width="1.333" d="M20.0 40.266667 L1180.0 40.266667"/><path fill="none" stroke="#333" stroke-width="1.333" d="M20.0 40.266667 L20.0 34.933333"/><path fill="none" stroke="#333" stroke-width="1.333" d="M92.5 40.266667 L92.5 34.933333"/><path fill="none" stroke="#333" stroke-width="1.333" d="M165.0 40.266667 L165.0 34.933333"/><path fill="none" stroke="#333" stroke-width="1.333" d="M237.5 40.266667 L237.5 34.933333"/><path fill="none" stroke="#333" stroke-width="1.333" d="M310.0 40.266667 L310.0 34.933333"/><path fill="none" stroke="#333" stroke-width="1.333" d="M382.5 40.266667 L382.5 34.933333"/><path fill="none" stroke="#333" stroke-width="1.333" d="M455.0 40.266667 L455.0 34.933333"/><path fill="none" stroke="#333" stroke-width="1.333" d="M527.5 40.266667 L527.5 34.933333"/><path fill="none" stroke="#333" stroke-width="1.333" d="M600.0 40.266667 L600.0 34.933333"/><path fill="none" stroke="#333" stroke-width="1.333" d="M672.5 40.266667 L672.5 34.933333"/><path fill="none" stroke="#333" stroke-width="1.333" d="M745.0 40.266667 L745.0 34.933333"/><path fill="none" stroke="#333" stroke-width="1.333" d="M817.5 40.266667 L817.5 34.933333"/><path fill="none" stroke="#333" stroke-width="1.333" d="M890.0 40.266667 L890.0 34.933333"/><path fill="none" stroke="#333" stroke-width="1.333" d="M962.5 40.266667 L962.5 34.933333"/><path fill="none" stroke="#333" stroke-width="1.333" d="M1035.0 40.266667 L1035.0 34.933333"/><path fill="none" stroke="#333" stroke-width="1.333" d="M1107.5 40.266667 L1107.5 34.933333"/><path fill="none" stroke="#333" stroke-width="1.333" d="M1180.0 40.266667 L1180.0 34.933333"/><text x="-6.711" y="66" fill="#333" font-family="Arial,Helvetica,'Helvetica Neue',sans-serif" font-size="14.667">0.0e+00</text><text x="65.789" y="66" fill="#333" font-family="Arial,Helvetica,'Helvetica Neue',sans-serif" font-size="14.667">1.0e+00</text><text x="138.289" y="66" fill="#333" font-family="Arial,Helvetica,'Helvetica Neue',sans-serif" font-size="14.667">2.0e+00</text><text x="210.789" y="66" fill="#333" font-family="Arial,Helvetica,'Helvetica Neue',sans-serif" font-size="14.667">3.0e+00</text><text x="283.289" y="66" fill="#333" font-family="Arial,Helvetica,'Helvetica Neue',sans-serif" font-size="14.667">4.0e+00</text><text x="355.789" y="66" fill="#333" font-family="Arial,Helvetica,'Helvetica Neue',sans-serif" font-size="14.667">5.0e+00</text><text x="428.289" y="66" fill="#333" font-family="Arial,Helvetica,'Helvetica Neue',sans-serif" font-size="14.667">6.0e+00</text><text x="500.789" y="66" fill="#333" font-family="Arial,Helvetica,'Helvetica Neue',sans-serif" font-size="14.667">7.0e+00</text><text x="573.289" y="66" fill="#333" font-family="Arial,Helvetica,'Helvetica Neue',sans-serif" font-size="14.667">8.0e+00</text><text x="645.789" y="66" fill="#333" font-family="Arial,Helvetica,'Helvetica Neue',sans-serif" font-size="14.667">9.0e+00</text><text x="718.289" y="66" fill="#333" font-family="Arial,Helvetica,'Helvetica Neue',sans-serif" font-size="14.667">1.0e+01</text><text x="790.789" y="66" fill="#333" font-family="Arial,Helvetica,'Helvetica Neue',sans-serif" font-size="14.667">1.1e+01</text><text x="863.289" y="66" fill="#333" font-family="Arial,Helvetica,'Helvetica Neue',sans-serif" font-size="14.667">1.2e+01</text><text x="935.789" y="66" fill="#333" font-family="Arial,Helvetica,'Helvetica Neue',sans-serif" font-size="14.667">1.3e+01</text><text x="1008.289" y="66" fill="#333" font-family="Arial,Helvetica,'Helvetica Neue',sans-serif" font-size="14.667">1.4e+01</text><text x="1080.789" y="66" fill="#333" font-family="Arial,Helvetica,'Helvetica Neue',sans-serif" font-size="14.667">1.5e+01</text><text x="1153.289" y="66" fill="#333" font-family="Arial,Helvetica,'Helvetica Neue',sans-serif" font-size="14.667">1.6e+01</text></svg>