<svg xmlns="http://www.w3.org/2000/svg" width="1200" height="90" viewBox="0 0 1200 90"><rect width="1200" height="90" fill="#fff"/><path fill="none" stroke="#333" stroke-width="1.333" d="M20.0 40.266667 L1180.0 40.266667"/><path fill="none" stroke="#333" stroke-width="1.333" d="M20.0 40.266667 L20.0 34.933333"/><path fill="none" stroke="#333" stroke-width="1.333" d="M125.454545 40.266667 L125.454545 34.933333"/><path fill="none" stroke="#333" stroke-width="1.333" d="M230.909091 40.266667 L230.909091 34.933333"/><path fill="none" stroke="#333" stroke-width="1.333" d="M336.363636 40.266667 L336.363636 34.933333"/><path fill="none" stroke="#333" stroke-width="1.333" d="M441.818182 40.266667 L441.818182 34.933333"/><path fill="none" stroke="#333" stroke-width="1.333" d="M547.272727 40.266667 L547.272727 34.933333"/><path fill="none" stroke="#333" stroke-width="1.333" d="M652.727273 40.266667 L652.727273 34.933333"/><path fill="none" stroke="#333" stroke-width="1.333" d="M758.181818 40.266667 L758.181818 34.933333"/><path fill="none" stroke="#333" stroke-width="1.333" d="M863.636364 40.266667 L863.636364 34.933333"/><path fill="none" stroke="#333" stroke-width="1.333" d="M969.090909 40.266667 L969.090909 34.933333"/><path fill="none" stroke="#333" stroke-width="1.333" d="M1074.545455 40.266667 L1074.545455 34.933333"/><path fill="none" stroke="#333" stroke-width="1.333" d="M1180.0 40.266667 L1180.0 34.933333"/><text x="-8.547" y="66" fill="#333" font-family="Arial,Helvetica,'Helvetica Neue',sans-serif" font-size="14.667">00:00:00</text><text x="96.908" y="66" fill="#333" font-family="Arial,Helvetica,'Helvetica Neue',sans-serif" font-size="14.667">02:00:00</text><text x="202.362" y="66" fill="#333" font-family="Arial,Helvetica,'Helvetica Neue',sans-serif" font-size="14.667">04:00:00</text><text x="307.817" y="66" fill="#333" font-family="Arial,Helvetica,'Helvetica Neue',sans-serif" font-size="14.667">06:00:00</text><text x="413.271" y="66" fill="#333" font-family="Arial,Helvetica,'Helvetica Neue',sans-serif" font-size="14.667">08:00:00</text><text x="518.726" y="66" fill="#333" font-family="Arial,Helvetica,'Helvetica Neue',sans-serif" font-size="14.667">10:00:00</text><text x="624.18" y="66" fill="#333" font-family="Arial,Helvetica,'Helvetica Neue',sans-serif" font-size="14.667">12:00:00</text><text x="729.635" y="66" fill="#333" font-family="Arial,Helvetica,'Helvetica Neue',sans-serif" font-size="14.667">14:00:00</text><text x="835.089" y="66" fill="#333" font-family="Arial,Helvetica,'Helvetica Neue',sans-serif" font-size="14.667">16:00:00</text><text x="940.544" y="66" fill="#333" font-family="Arial,Helvetica,'Helvetica Neue',sans-serif" font-size="14.667">18:00:00</text><text x="1045.999" y="66" fill="#333" font-family="Arial,Helvetica,'Helvetica Neue',sans-serif" font-size="14.667">20:00:00</text><text x="1151.453" y="66" fill="#333" font-family="Arial,Helvetica,'Helvetica Neue',sans-serif" font-size="14.667">22:00:00</text></svg>