<svg xmlns="http://www.w3.org/2000/svg" width="1200" height="90" viewBox="0 0 1200 90"><rect width="1200" height="90" fill="#fff"/><path fill="none" stroke="#333" stroke-width="1.333" d="M20.0 40.266667 L1180.0 40.266667"/><path fill="none" stroke="#333" stroke-width="1.333" d="M20.0 40.266667 L20.0 34.933333"/><path fill="none" stroke="#333" stroke-width="1.333" d="M92.5 40.266667 L92.5 34.933333"/><path fill="none" stroke="#333" stroke-width="1.333" d="M165.0 40.266667 L165.0 34.933333"/><path fill="none" stroke="#333" stroke-width="1.333" d="M237.5 40.266667 L237.5 34.933333"/><path fill="none" stroke="#333" stroke-width="1.333" d="M310.0 40.266667 L310.0 34.933333"/><path fill="none" stroke="#333" stroke-width="1.333" d="M382.5 40.266667 L382.5 34.933333"/><path fill="none" stroke="#333" stroke-width="1.333" d="M455.0 40.266667 L455.0 34.933333"/><path fill="none" stroke="#333" stroke-width="1.333" d="M527.5 40.266667 L527.5 34.933333"/><path fill="none" stroke="#333" stroke-width="1.333" d="M600.0 40.266667 L600.0 34.933333"/><path fill="none" stroke="#333" stroke-width="1.333" d="M672.5 40.266667 L672.5 34.933333"/><path fill="none" stroke="#333" stroke-width="1.333" d="M745.0 40.266667 L745.0 34.933333"/><path fill="none" stroke="#333" stroke-width="1.333" d="M817.5 40.266667 L817.5 34.933333"/><path fill="none" stroke="#333" stroke-width="1.333" d="M890.0 40.266667 L890.0 34.933333"/><path fill="none" stroke="#333" stroke-width="1.333" d="M962.5 40.266667 L962.5 34.933333"/><path fill="none" stroke="#333" stroke-width="1.333" d="M1035.0 40.266667 L1035.0 34.933333"/><path fill="none" stroke="#333" stroke-width="1.333" d="M1107.5 40.266667 L1107.5 34.933333"/><path fill="none" stroke="#333" stroke-width="1.333" d="M1180.0 40.266667 L1180.0 34.933333"/><text x="9.805" y="66" fill="#333" font-family="Arial,Helvetica,'Helvetica Neue',sans-serif" font-size="14.667">0.0</text><text x="82.305" y="66" fill="#333" font-family="Arial,Helvetica,'Helvetica Neue',sans-serif" font-size="14.667">1.0</text><text x="154.805" y="66" fill="#333" font-family="Arial,Helvetica,'Helvetica Neue',sans-serif" font-size="14.667">2.0</text><text x="227.305" y="66" fill="#333" font-family="Arial,Helvetica,'Helvetica Neue',sans-serif" font-size="14.667">3.0</text><text x="299.805" y="66" fill="#333" font-family="Arial,Helvetica,'Helvetica Neue',sans-serif" font-size="14.667">4.0</text><text x="372.305" y="66" fill="#333" font-family="Arial,Helvetica,'Helvetica Neue',sans-serif" font-size="14.667">5.0</text><text x="444.805" y="66" fill="#333" font-family="Arial,Helvetica,'Helvetica Neue',sans-serif" font-size="14.667">6.0</text><text x="517.305" y="66" fill="#333" font-family="Arial,Helvetica,'Helvetica Neue',sans-serif" font-size="14.667">7.0</text><text x="589.805" y="66" fill="#333" font-family="Arial,Helvetica,'Helvetica Neue',sans-serif" font-size="14.667">8.0</text><text x="662.305" y="66" fill="#333" font-family="Arial,Helvetica,'Helvetica Neue',sans-serif" font-size="14.667">9.0</text><text x="730.727" y="66" fill="#333" font-family="Arial,Helvetica,'Helvetica Neue',sans-serif" font-size="14.667">10.0</text><text x="803.773" y="66" fill="#333" font-family="Arial,Helvetica,'Helvetica Neue',sans-serif" font-size="14.667">11.0</text><text x="875.727" y="66" fill="#333" font-family="Arial,Helvetica,'Helvetica Neue',sans-serif" font-size="14.667">12.0</text><text x="948.227" y="66" fill="#333" font-family="Arial,Helvetica,'Helvetica Neue',sans-serif" font-size="14.667">13.0</text><text x="1020.727" y="66" fill="#333" font-family="Arial,Helvetica,'Helvetica Neue',sans-serif" font-size="14.667">14.0</text><text x="1093.227" y="66" fill="#333" font-family="Arial,Helvetica,'Helvetica Neue',sans-serif" font-size="14.667">15.0</text><text x="1165.727" y="66" fill="#333" font-family="Arial,Helvetica,'Helvetica Neue',sans-serif" font-size="14.667">16.0</text></svg>