<svg xmlns="http://www.w3.org/2000/svg" width="800" height="400" viewBox="0 0 800 400"><rect width="800" height="400" fill="#fff"/><path fill="none" stroke="#333" stroke-width="1.333" d="M52.123958 20.0 L52.123958 350.266667"/><path fill="none" stroke="#333" stroke-width="1.333" d="M52.123958 350.266667 L57.457292 350.266667"/><path fill="none" stroke="#333" stroke-width="1.333" d="M52.123958 303.085712 L57.457292 303.085712"/><path fill="none" stroke="#333" stroke-width="1.333" d="M52.123958 255.904758 L57.457292 255.904758"/><path fill="none" stroke="#333" stroke-width="1.333" d="M52.123958 208.723798 L57.457292 208.723798"/><path fill="none" stroke="#333" stroke-width="1.333" d="M52.123958 161.542849 L57.457292 161.542849"/><path fill="none" stroke="#333" stroke-width="1.333" d="M52.123958 114.361899 L57.457292 114.361899"/><path fill="none" stroke="#333" stroke-width="1.333" d="M52.123958 67.18093 L57.457292 67.18093"/><path fill="none" stroke="#333" stroke-width="1.333" d="M52.123958 20.0 L57.457292 20.0"/><text x="20" y="355.267" fill="#333" font-family="Arial,Helvetica,'Helvetica Neue',sans-serif" font-size="14.667">0.0</text><text x="20" y="308.086" fill="#333" font-family="Arial,Helvetica,'Helvetica Neue',sans-serif" font-size="14.667">0.1</text><text x="20" y="260.905" fill="#333" font-family="Arial,Helvetica,'Helvetica Neue',sans-serif" font-size="14.667">0.3</text><text x="20" y="213.724" fill="#333" font-family="Arial,Helvetica,'Helvetica Neue',sans-serif" font-size="14.667">0.4</text><text x="20" y="166.543" fill="#333" font-family="Arial,Helvetica,'Helvetica Neue',sans-serif" font-size="14.667">0.6</text><text x="20" y="119.362" fill="#333" font-family="Arial,Helvetica,'Helvetica Neue',sans-serif" font-size="14.667">0.7</text><text x="20" y="72.181" fill="#333" font-family="Arial,Helvetica,'Helvetica Neue',sans-serif" font-size="14.667">0.9</text><text x="20" y="25" fill="#333" font-family="Arial,Helvetica,'Helvetica Neue',sans-serif" font-size="14.667">1.0</text><path fill="none" stroke="#333" stroke-width="1.333" d="M52.123958 350.266667 L780.0 350.266667"/><path fill="none" stroke="#333" stroke-width="1.333" d="M52.123958 350.266667 L52.123958 344.933333"/><path fill="none" stroke="#333" stroke-width="1.333" d="M156.106255 350.266667 L156.106255 344.933333"/><path fill="none" stroke="#333" stroke-width="1.333" d="M260.088551 350.266667 L260.088551 344.933333"/><path fill="none" stroke="#333" stroke-width="1.333" d="M364.070858 350.266667 L364.070858 344.933333"/><path fill="none" stroke="#333" stroke-width="1.333" d="M468.053144 350.266667 L468.053144 344.933333"/><path fill="none" stroke="#333" stroke-width="1.333" d="M572.035429 350.266667 L572.035429 344.933333"/><path fill="none" stroke="#333" stroke-width="1.333" d="M676.017758 350.266667 L676.017758 344.933333"/><path fill="none" stroke="#333" stroke-width="1.333" d="M780.0 350.266667 L780.0 344.933333"/><text x="41.929" y="376" fill="#333" font-family="Arial,Helvetica,'Helvetica Neue',sans-serif" font-size="14.667">0.0</text><text x="145.911" y="376" fill="#333" font-family="Arial,Helvetica,'Helvetica Neue',sans-serif" font-size="14.667">0.1</text><text x="249.893" y="376" fill="#333" font-family="Arial,Helvetica,'Helvetica Neue',sans-serif" font-size="14.667">0.3</text><text x="353.876" y="376" fill="#333" font-family="Arial,Helvetica,'Helvetica Neue',sans-serif" font-size="14.667">0.4</text><text x="457.858" y="376" fill="#333" font-family="Arial,Helvetica,'Helvetica Neue',sans-serif" font-size="14.667">0.6</text><text x="561.84" y="376" fill="#333" font-family="Arial,Helvetica,'Helvetica Neue',sans-serif" font-size="14.667">0.7</text><text x="665.822" y="376" fill="#333" font-family="Arial,Helvetica,'Helvetica Neue',sans-serif" font-size="14.667">0.9</text><text x="769.805" y="376" fill="#333" font-family="Arial,Helvetica,'Helvetica Neue',sans-serif" font-size="14.667">1.0</text><path fill="#06c" d="M146.123958 170.266667 M138.123958 170.266667 a4.0 4.0 0 1 0 8.0 0 a4.0 4.0 0 1 0 -8.0 0"/><path fill="#0c6" d="M710.123958 50.266667 M694.123958 50.266667 a8.0 8.0 0 1 0 16.0 0 a8.0 8.0 0 1 0 -16.0 0"/><path fill="#c06" d="M486.790625 230.266667 M457.457292 230.266667 a14.666667 14.666667 0 1 0 29.333333 0 a14.666667 14.666667 0 1 0 -29.333333 0"/></svg>