<svg xmlns="http://www.w3.org/2000/svg" width="800" height="400" viewBox="0 0 800 400"><rect width="800" height="400" fill="#fff"/><path fill="none" stroke="#333" stroke-width="1.333" d="M60.280208 20.0 L60.280208 350.266667"/><path fill="none" stroke="#333" stroke-width="1.333" d="M60.280208 350.266667 L65.613542 350.266667"/><path fill="none" stroke="#333" stroke-width="1.333" d="M60.280208 308.983333 L65.613542 308.983333"/><path fill="none" stroke="#333" stroke-width="1.333" d="M60.280208 267.7 L65.613542 267.7"/><path fill="none" stroke="#333" stroke-width="1.333" d="M60.280208 226.416667 L65.613542 226.416667"/><path fill="none" stroke="#333" stroke-width="1.333" d="M60.280208 185.133333 L65.613542 185.133333"/><path fill="none" stroke="#333" stroke-width="1.333" d="M60.280208 143.85 L65.613542 143.85"/><path fill="none" stroke="#333" stroke-width="1.333" d="M60.280208 102.566667 L65.613542 102.566667"/><path fill="none" stroke="#333" stroke-width="1.333" d="M60.280208 61.283333 L65.613542 61.283333"/><path fill="none" stroke="#333" stroke-width="1.333" d="M60.280208 20.0 L65.613542 20.0"/><text x="28.156" y="355.267" fill="#333" font-family="Arial,Helvetica,'Helvetica Neue',sans-serif" font-size="14.667">0.0</text><text x="20" y="313.983" fill="#333" font-family="Arial,Helvetica,'Helvetica Neue',sans-serif" font-size="14.667">10.0</text><text x="20" y="272.7" fill="#333" font-family="Arial,Helvetica,'Helvetica Neue',sans-serif" font-size="14.667">20.0</text><text x="20" y="231.417" fill="#333" font-family="Arial,Helvetica,'Helvetica Neue',sans-serif" font-size="14.667">30.0</text><text x="20" y="190.133" fill="#333" font-family="Arial,Helvetica,'Helvetica Neue',sans-serif" font-size="14.667">40.0</text><text x="20" y="148.85" fill="#333" font-family="Arial,Helvetica,'Helvetica Neue',sans-serif" font-size="14.667">50.0</text><text x="20" y="107.567" fill="#333" font-family="Arial,Helvetica,'Helvetica Neue',sans-serif" font-size="14.667">60.0</text><text x="20" y="66.283" fill="#333" font-family="Arial,Helvetica,'Helvetica Neue',sans-serif" font-size="14.667">70.0</text><text x="20" y="25" fill="#333" font-family="Arial,Helvetica,'Helvetica Neue',sans-serif" font-size="14.667">80.0</text><path fill="none" stroke="#333" stroke-width="1.333" d="M60.280208 350.266667 L780.0 350.266667"/><path fill="none" stroke="#333" stroke-width="1.333" d="M60.280208 350.266667 L60.280208 344.933333"/><path fill="none" stroke="#333" stroke-width="1.333" d="M180.233507 350.266667 L180.233507 344.933333"/><path fill="none" stroke="#333" stroke-width="1.333" d="M300.186806 350.266667 L300.186806 344.933333"/><path fill="none" stroke="#333" stroke-width="1.333" d="M420.140104 350.266667 L420.140104 344.933333"/><path fill="none" stroke="#333" stroke-width="1.333" d="M540.093403 350.266667 L540.093403 344.933333"/><path fill="none" stroke="#333" stroke-width="1.333" d="M660.046701 350.266667 L660.046701 344.933333"/><path fill="none" stroke="#333" stroke-width="1.333" d="M780.0 350.266667 L780.0 344.933333"/><text x="50.085" y="376" fill="#333" font-family="Arial,Helvetica,'Helvetica Neue',sans-serif" font-size="14.667">0.0</text><text x="165.96" y="376" fill="#333" font-family="Arial,Helvetica,'Helvetica Neue',sans-serif" font-size="14.667">10.0</text><text x="285.913" y="376" fill="#333" font-family="Arial,Helvetica,'Helvetica Neue',sans-serif" font-size="14.667">20.0</text><text x="405.867" y="376" fill="#333" font-family="Arial,Helvetica,'Helvetica Neue',sans-serif" font-size="14.667">30.0</text><text x="525.82" y="376" fill="#333" font-family="Arial,Helvetica,'Helvetica Neue',sans-serif" font-size="14.667">40.0</text><text x="645.773" y="376" fill="#333" font-family="Arial,Helvetica,'Helvetica Neue',sans-serif" font-size="14.667">50.0</text><text x="765.727" y="376" fill="#333" font-family="Arial,Helvetica,'Helvetica Neue',sans-serif" font-size="14.667">60.0</text><path fill="#06c" d="M184.233507 209.903333 M176.233507 209.903333 a4.0 4.0 0 1 0 8.0 0 a4.0 4.0 0 1 0 -8.0 0"/><path fill="#06c" d="M244.210156 275.956667 M236.210156 275.956667 a4.0 4.0 0 1 0 8.0 0 a4.0 4.0 0 1 0 -8.0 0"/><path fill="#06c" d="M304.186806 172.748333 M296.186806 172.748333 a4.0 4.0 0 1 0 8.0 0 a4.0 4.0 0 1 0 -8.0 0"/><path fill="#06c" d="M424.140104 271.828333 M416.140104 271.828333 a4.0 4.0 0 1 0 8.0 0 a4.0 4.0 0 1 0 -8.0 0"/><path fill="#06c" d="M544.093403 247.058333 M536.093403 247.058333 a4.0 4.0 0 1 0 8.0 0 a4.0 4.0 0 1 0 -8.0 0"/><path fill="#06c" d="M664.046701 214.031667 M656.046701 214.031667 a4.0 4.0 0 1 0 8.0 0 a4.0 4.0 0 1 0 -8.0 0"/></svg>