<svg xmlns="http://www.w3.org/2000/svg" width="900" height="200"><rect width="900" height="200" fill="#ffffffff"/><path fill="none" stroke="#89a54eff" stroke-width="2" d="M108.396 47.5511 L156.955 72.6059 L399.748 107.056 L569.703 71.04 L593.982 139.941 L642.54 136.809"/><path fill="#89a54eff" d="M108.396 49.5511 C107.292 49.5511 106.396 48.6557 106.396 47.5511 C106.396 46.4465 107.292 45.5511 108.396 45.5511 C109.501 45.5511 110.396 46.4465 110.396 47.5511 C110.396 48.6557 109.501 49.5511 108.396 49.5511 Z"/><path fill="#89a54eff" d="M156.955 74.6059 C155.85 74.6059 154.955 73.7105 154.955 72.6059 C154.955 71.5014 155.85 70.6059 156.955 70.6059 C158.059 70.6059 158.955 71.5014 158.955 72.6059 C158.955 73.7105 158.059 74.6059 156.955 74.6059 Z"/><path fill="#89a54eff" d="M399.748 109.056 C398.643 109.056 397.748 108.161 397.748 107.056 C397.748 105.952 398.643 105.056 399.748 105.056 C400.852 105.056 401.748 105.952 401.748 107.056 C401.748 108.161 400.852 109.056 399.748 109.056 Z"/><path fill="#89a54eff" d="M569.703 73.04 C568.598 73.04 567.703 72.1446 567.703 71.04 C567.703 69.9354 568.598 69.04 569.703 69.04 C570.807 69.04 571.703 69.9354 571.703 71.04 C571.703 72.1446 570.807 73.04 569.703 73.04 Z"/><path fill="#89a54eff" d="M593.982 141.941 C592.877 141.941 591.982 141.045 591.982 139.941 C591.982 138.836 592.877 137.941 593.982 137.941 C595.086 137.941 595.982 138.836 595.982 139.941 C595.982 141.045 595.086 141.941 593.982 141.941 Z"/><path fill="#89a54eff" d="M642.54 138.809 C641.436 138.809 640.54 137.913 640.54 136.809 C640.54 135.704 641.436 134.809 642.54 134.809 C643.645 134.809 644.54 135.704 644.54 136.809 C644.54 137.913 643.645 138.809 642.54 138.809 Z"/><path fill="none" stroke="#3d96aeff" stroke-width="2" d="M156.955 47.5511 L399.748 128.979 L642.54 33.4578 L691.099 130.545 L763.937 61.6444 L836.775 49.117"/><path fill="#3d96aeff" d="M156.955 49.5511 C155.85 49.5511 154.955 48.6557 154.955 47.5511 C154.955 46.4465 155.85 45.5511 156.955 45.5511 C158.059 45.5511 158.955 46.4465 158.955 47.5511 C158.955 48.6557 158.059 49.5511 156.955 49.5511 Z"/><path fill="#3d96aeff" d="M399.748 130.979 C398.643 130.979 397.748 130.084 397.748 128.979 C397.748 127.875 398.643 126.979 399.748 126.979 C400.852 126.979 401.748 127.875 401.748 128.979 C401.748 130.084 400.852 130.979 399.748 130.979 Z"/><path fill="#3d96aeff" d="M642.54 35.4578 C641.436 35.4578 640.54 34.5623 640.54 33.4578 C640.54 32.3532 641.436 31.4578 642.54 31.4578 C643.645 31.4578 644.54 32.3532 644.54 33.4578 C644.54 34.5623 643.645 35.4578 642.54 35.4578 Z"/><path fill="#3d96aeff" d="M691.099 132.545 C689.994 132.545 689.099 131.65 689.099 130.545 C689.099 129.441 689.994 128.545 691.099 128.545 C692.204 128.545 693.099 129.441 693.099 130.545 C693.099 131.65 692.204 132.545 691.099 132.545 Z"/><path fill="#3d96aeff" d="M763.937 63.6444 C762.832 63.6444 761.937 62.749 761.937 61.6444 C761.937 60.5399 762.832 59.6444 763.937 59.6444 C765.041 59.6444 765.937 60.5399 765.937 61.6444 C765.937 62.749 765.041 63.6444 763.937 63.6444 Z"/><path fill="#3d96aeff" d="M836.775 51.117 C835.67 51.117 834.775 50.2216 834.775 49.117 C834.775 48.0125 835.67 47.117 836.775 47.117 C837.879 47.117 838.775 48.0125 838.775 49.117 C838.775 50.2216 837.879 51.117 836.775 51.117 Z"/><path fill="#ffffffff" d="M68.6375 146.8 L169.557 146.8 L169.557 88.8 L68.6375 88.8 Z"/><text x="99.438" y="111.6" fill="#000000ff" font-family="Arial,Helvetica,'Helvetica Neue',sans-serif" font-size="14.667" font-weight="500">Series A</text><path fill="#89a54eff" d="M85.5042 112.1 C82.4666 112.1 80.0042 109.638 80.0042 106.6 C80.0042 103.562 82.4666 101.1 85.5042 101.1 C88.5417 101.1 91.0042 103.562 91.0042 106.6 C91.0042 109.638 88.5417 112.1 85.5042 112.1 Z"/><text x="99.438" y="134" fill="#000000ff" font-family="Arial,Helvetica,'Helvetica Neue',sans-serif" font-size="14.667" font-weight="500">Series B</text><path fill="#3d96aeff" d="M85.5042 134.5 C82.4666 134.5 80.0042 132.038 80.0042 129 C80.0042 125.962 82.4666 123.5 85.5042 123.5 C88.5417 123.5 91.0042 125.962 91.0042 129 C91.0042 132.038 88.5417 134.5 85.5042 134.5 Z"/><path fill="none" stroke="#000000ff" stroke-width="1.333" d="M59.8375 155.6 L885.333 155.6"/><path fill="none" stroke="#000000ff" stroke-width="1.333" d="M59.8375 155.6 L59.8375 150.267"/><path fill="none" stroke="#000000ff" stroke-width="1.333" d="M142.387 155.6 L142.387 150.267"/><path fill="none" stroke="#000000ff" stroke-width="1.333" d="M224.937 155.6 L224.937 150.267"/><path fill="none" stroke="#000000ff" stroke-width="1.333" d="M307.486 155.6 L307.486 150.267"/><path fill="none" stroke="#000000ff" stroke-width="1.333" d="M390.036 155.6 L390.036 150.267"/><path fill="none" stroke="#000000ff" stroke-width="1.333" d="M472.585 155.6 L472.585 150.267"/><path fill="none" stroke="#000000ff" stroke-width="1.333" d="M555.135 155.6 L555.135 150.267"/><path fill="none" stroke="#000000ff" stroke-width="1.333" d="M637.685 155.6 L637.685 150.267"/><path fill="none" stroke="#000000ff" stroke-width="1.333" d="M720.234 155.6 L720.234 150.267"/><path fill="none" stroke="#000000ff" stroke-width="1.333" d="M802.784 155.6 L802.784 150.267"/><path fill="none" stroke="#000000ff" stroke-width="1.333" d="M885.333 155.6 L885.333 150.267"/><text x="43.119" y="181.333" fill="#000000ff" font-family="Arial,Helvetica,'Helvetica Neue',sans-serif" font-size="14.667" font-weight="500">-12.0</text><text x="129.746" y="181.333" fill="#000000ff" font-family="Arial,Helvetica,'Helvetica Neue',sans-serif" font-size="14.667" font-weight="500">-8.6</text><text x="212.296" y="181.333" fill="#000000ff" font-family="Arial,Helvetica,'Helvetica Neue',sans-serif" font-size="14.667" font-weight="500">-5.2</text><text x="294.846" y="181.333" fill="#000000ff" font-family="Arial,Helvetica,'Helvetica Neue',sans-serif" font-size="14.667" font-weight="500">-1.8</text><text x="379.841" y="181.333" fill="#000000ff" font-family="Arial,Helvetica,'Helvetica Neue',sans-serif" font-size="14.667" font-weight="500">1.6</text><text x="462.39" y="181.333" fill="#000000ff" font-family="Arial,Helvetica,'Helvetica Neue',sans-serif" font-size="14.667" font-weight="500">5.0</text><text x="544.94" y="181.333" fill="#000000ff" font-family="Arial,Helvetica,'Helvetica Neue',sans-serif" font-size="14.667" font-weight="500">8.4</text><text x="623.958" y="181.333" fill="#000000ff" font-family="Arial,Helvetica,'Helvetica Neue',sans-serif" font-size="14.667" font-weight="500">11.8</text><text x="705.961" y="181.333" fill="#000000ff" font-family="Arial,Helvetica,'Helvetica Neue',sans-serif" font-size="14.667" font-weight="500">15.2</text><text x="788.51" y="181.333" fill="#000000ff" font-family="Arial,Helvetica,'Helvetica Neue',sans-serif" font-size="14.667" font-weight="500">18.6</text><text x="871.06" y="181.333" fill="#000000ff" font-family="Arial,Helvetica,'Helvetica Neue',sans-serif" font-size="14.667" font-weight="500">22.0</text><path fill="none" stroke="#000000ff" stroke-width="1.333" d="M59.8375 155.6 L59.8375 14.6667"/><path fill="none" stroke="#000000ff" stroke-width="1.333" d="M59.8375 155.6 L65.1708 155.6"/><path fill="none" stroke="#000000ff" stroke-width="1.333" d="M59.8375 141.507 L65.1708 141.507"/><path fill="none" stroke="#000000ff" stroke-width="1.333" d="M59.8375 127.413 L65.1708 127.413"/><path fill="none" stroke="#000000ff" stroke-width="1.333" d="M59.8375 113.32 L65.1708 113.32"/><path fill="none" stroke="#000000ff" stroke-width="1.333" d="M59.8375 99.2267 L65.1708 99.2267"/><path fill="none" stroke="#000000ff" stroke-width="1.333" d="M59.8375 85.1333 L65.1708 85.1333"/><path fill="none" stroke="#000000ff" stroke-width="1.333" d="M59.8375 71.04 L65.1708 71.04"/><path fill="none" stroke="#000000ff" stroke-width="1.333" d="M59.8375 56.9467 L65.1708 56.9467"/><path fill="none" stroke="#000000ff" stroke-width="1.333" d="M59.8375 42.8533 L65.1708 42.8533"/><path fill="none" stroke="#000000ff" stroke-width="1.333" d="M59.8375 28.76 L65.1708 28.76"/><path fill="none" stroke="#000000ff" stroke-width="1.333" d="M59.8375 14.6667 L65.1708 14.6667"/><text x="14.667" y="160.6" fill="#000000ff" font-family="Arial,Helvetica,'Helvetica Neue',sans-serif" font-size="14.667" font-weight="500">-35.0</text><text x="14.667" y="146.507" fill="#000000ff" font-family="Arial,Helvetica,'Helvetica Neue',sans-serif" font-size="14.667" font-weight="500">-26.0</text><text x="14.667" y="132.413" fill="#000000ff" font-family="Arial,Helvetica,'Helvetica Neue',sans-serif" font-size="14.667" font-weight="500">-17.0</text><text x="22.823" y="118.32" fill="#000000ff" font-family="Arial,Helvetica,'Helvetica Neue',sans-serif" font-size="14.667" font-weight="500">-8.0</text><text x="27.714" y="104.227" fill="#000000ff" font-family="Arial,Helvetica,'Helvetica Neue',sans-serif" font-size="14.667" font-weight="500">1.0</text><text x="19.557" y="90.133" fill="#000000ff" font-family="Arial,Helvetica,'Helvetica Neue',sans-serif" font-size="14.667" font-weight="500">10.0</text><text x="19.557" y="76.04" fill="#000000ff" font-family="Arial,Helvetica,'Helvetica Neue',sans-serif" font-size="14.667" font-weight="500">19.0</text><text x="19.557" y="61.947" fill="#000000ff" font-family="Arial,Helvetica,'Helvetica Neue',sans-serif" font-size="14.667" font-weight="500">28.0</text><text x="19.557" y="47.853" fill="#000000ff" font-family="Arial,Helvetica,'Helvetica Neue',sans-serif" font-size="14.667" font-weight="500">37.0</text><text x="19.557" y="33.76" fill="#000000ff" font-family="Arial,Helvetica,'Helvetica Neue',sans-serif" font-size="14.667" font-weight="500">46.0</text><text x="19.557" y="19.667" fill="#000000ff" font-family="Arial,Helvetica,'Helvetica Neue',sans-serif" font-size="14.667" font-weight="500">55.0</text></svg>