<svg xmlns="http://www.w3.org/2000/svg" width="900" height="300"><rect width="900" height="300" fill="#ffffffff"/><path fill="#eeeeeeff" d="M47.6031 255.6 L885.333 255.6 L885.333 14.6667 L47.6031 14.6667 Z"/><path fill="none" stroke="#ffffffff" stroke-width="1.333" d="M47.6031 255.6 L47.6031 14.6667"/><path fill="none" stroke="#ffffffff" stroke-width="1.333" d="M131.376 255.6 L131.376 14.6667"/><path fill="none" stroke="#ffffffff" stroke-width="1.333" d="M215.149 255.6 L215.149 14.6667"/><path fill="none" stroke="#ffffffff" stroke-width="1.333" d="M298.922 255.6 L298.922 14.6667"/><path fill="none" stroke="#ffffffff" stroke-width="1.333" d="M382.695 255.6 L382.695 14.6667"/><path fill="none" stroke="#ffffffff" stroke-width="1.333" d="M466.468 255.6 L466.468 14.6667"/><path fill="none" stroke="#ffffffff" stroke-width="1.333" d="M550.241 255.6 L550.241 14.6667"/><path fill="none" stroke="#ffffffff" stroke-width="1.333" d="M634.014 255.6 L634.014 14.6667"/><path fill="none" stroke="#ffffffff" stroke-width="1.333" d="M717.787 255.6 L717.787 14.6667"/><path fill="none" stroke="#ffffffff" stroke-width="1.333" d="M801.56 255.6 L801.56 14.6667"/><path fill="none" stroke="#ffffffff" stroke-width="1.333" d="M885.333 255.6 L885.333 14.6667"/><path fill="none" stroke="#ffffffff" stroke-width="1.333" d="M47.6031 14.6667 L885.333 14.6667"/><path fill="none" stroke="#ffffffff" stroke-width="1.333" d="M47.6031 38.8427 L885.333 38.8427"/><path fill="none" stroke="#ffffffff" stroke-width="1.333" d="M47.6031 52.9848 L885.333 52.9848"/><path fill="none" stroke="#ffffffff" stroke-width="1.333" d="M47.6031 63.0188 L885.333 63.0188"/><path fill="none" stroke="#ffffffff" stroke-width="1.333" d="M47.6031 70.8017 L885.333 70.8017"/><path fill="none" stroke="#ffffffff" stroke-width="1.333" d="M47.6031 77.1609 L885.333 77.1609"/><path fill="none" stroke="#ffffffff" stroke-width="1.333" d="M47.6031 82.5374 L885.333 82.5374"/><path fill="none" stroke="#ffffffff" stroke-width="1.333" d="M47.6031 87.1948 L885.333 87.1948"/><path fill="none" stroke="#ffffffff" stroke-width="1.333" d="M47.6031 91.3029 L885.333 91.3029"/><path fill="none" stroke="#ffffffff" stroke-width="1.333" d="M47.6031 94.9778 L885.333 94.9778"/><path fill="none" stroke="#ffffffff" stroke-width="1.333" d="M47.6031 119.154 L885.333 119.154"/><path fill="none" stroke="#ffffffff" stroke-width="1.333" d="M47.6031 133.296 L885.333 133.296"/><path fill="none" stroke="#ffffffff" stroke-width="1.333" d="M47.6031 143.33 L885.333 143.33"/><path fill="none" stroke="#ffffffff" stroke-width="1.333" d="M47.6031 151.113 L885.333 151.113"/><path fill="none" stroke="#ffffffff" stroke-width="1.333" d="M47.6031 157.472 L885.333 157.472"/><path fill="none" stroke="#ffffffff" stroke-width="1.333" d="M47.6031 162.849 L885.333 162.849"/><path fill="none" stroke="#ffffffff" stroke-width="1.333" d="M47.6031 167.506 L885.333 167.506"/><path fill="none" stroke="#ffffffff" stroke-width="1.333" d="M47.6031 171.614 L885.333 171.614"/><path fill="none" stroke="#ffffffff" stroke-width="1.333" d="M47.6031 175.289 L885.333 175.289"/><path fill="none" stroke="#ffffffff" stroke-width="1.333" d="M47.6031 199.465 L885.333 199.465"/><path fill="none" stroke="#ffffffff" stroke-width="1.333" d="M47.6031 213.607 L885.333 213.607"/><path fill="none" stroke="#ffffffff" stroke-width="1.333" d="M47.6031 223.641 L885.333 223.641"/><path fill="none" stroke="#ffffffff" stroke-width="1.333" d="M47.6031 231.424 L885.333 231.424"/><path fill="none" stroke="#ffffffff" stroke-width="1.333" d="M47.6031 237.783 L885.333 237.783"/><path fill="none" stroke="#ffffffff" stroke-width="1.333" d="M47.6031 243.16 L885.333 243.16"/><path fill="none" stroke="#ffffffff" stroke-width="1.333" d="M47.6031 247.817 L885.333 247.817"/><path fill="none" stroke="#ffffffff" stroke-width="1.333" d="M47.6031 251.925 L885.333 251.925"/><path fill="none" stroke="#ffffffff" stroke-width="1.333" d="M47.6031 255.6 L885.333 255.6"/><path fill="none" stroke="#000000ff" stroke-width="2" d="M47.6031 255.6 L257.036 175.289 L466.468 94.9778 L675.901 14.6667 L885.333 -65.6444"/><text x="37.408" y="281.333" fill="#000000ff" font-family="Arial,Helvetica,'Helvetica Neue',sans-serif" font-size="14.667" font-weight="500">1.0</text><text x="121.181" y="281.333" fill="#000000ff" font-family="Arial,Helvetica,'Helvetica Neue',sans-serif" font-size="14.667" font-weight="500">1.4</text><text x="204.954" y="281.333" fill="#000000ff" font-family="Arial,Helvetica,'Helvetica Neue',sans-serif" font-size="14.667" font-weight="500">1.8</text><text x="288.727" y="281.333" fill="#000000ff" font-family="Arial,Helvetica,'Helvetica Neue',sans-serif" font-size="14.667" font-weight="500">2.2</text><text x="372.5" y="281.333" fill="#000000ff" font-family="Arial,Helvetica,'Helvetica Neue',sans-serif" font-size="14.667" font-weight="500">2.6</text><text x="456.273" y="281.333" fill="#000000ff" font-family="Arial,Helvetica,'Helvetica Neue',sans-serif" font-size="14.667" font-weight="500">3.0</text><text x="540.046" y="281.333" fill="#000000ff" font-family="Arial,Helvetica,'Helvetica Neue',sans-serif" font-size="14.667" font-weight="500">3.4</text><text x="623.819" y="281.333" fill="#000000ff" font-family="Arial,Helvetica,'Helvetica Neue',sans-serif" font-size="14.667" font-weight="500">3.8</text><text x="707.592" y="281.333" fill="#000000ff" font-family="Arial,Helvetica,'Helvetica Neue',sans-serif" font-size="14.667" font-weight="500">4.2</text><text x="791.365" y="281.333" fill="#000000ff" font-family="Arial,Helvetica,'Helvetica Neue',sans-serif" font-size="14.667" font-weight="500">4.6</text><text x="875.138" y="281.333" fill="#000000ff" font-family="Arial,Helvetica,'Helvetica Neue',sans-serif" font-size="14.667" font-weight="500">5.0</text><text x="14.667" y="259.1" fill="#000000ff" font-family="Arial,Helvetica,'Helvetica Neue',sans-serif" font-size="14.667" font-weight="500">10⁰</text><text x="14.667" y="180.289" fill="#000000ff" font-family="Arial,Helvetica,'Helvetica Neue',sans-serif" font-size="14.667" font-weight="500">10¹</text><text x="14.667" y="99.978" fill="#000000ff" font-family="Arial,Helvetica,'Helvetica Neue',sans-serif" font-size="14.667" font-weight="500">10²</text><text x="14.667" y="19.667" fill="#000000ff" font-family="Arial,Helvetica,'Helvetica Neue',sans-serif" font-size="14.667" font-weight="500">10²</text></svg>