<svg xmlns="http://www.w3.org/2000/svg" width="2048" height="1024"><rect width="2048" height="1024" fill="#ffffffff"/><path fill="#eeeeeeff" d="M137.359 916 L1910.64 916 L1910.64 36.6667 L137.359 36.6667 Z"/><path fill="none" stroke="#ffffffff" stroke-width="3.333" d="M137.359 916 L137.359 36.6667"/><path fill="none" stroke="#ffffffff" stroke-width="3.333" d="M432.906 916 L432.906 36.6667"/><path fill="none" stroke="#ffffffff" stroke-width="3.333" d="M728.453 916 L728.453 36.6667"/><path fill="none" stroke="#ffffffff" stroke-width="3.333" d="M1024 916 L1024 36.6667"/><path fill="none" stroke="#ffffffff" stroke-width="3.333" d="M1319.55 916 L1319.55 36.6667"/><path fill="none" stroke="#ffffffff" stroke-width="3.333" d="M1615.09 916 L1615.09 36.6667"/><path fill="none" stroke="#ffffffff" stroke-width="3.333" d="M1910.64 916 L1910.64 36.6667"/><path fill="none" stroke="#ffffffff" stroke-width="3.333" d="M137.359 146.583 L1910.64 146.583"/><path fill="none" stroke="#ffffffff" stroke-width="3.333" d="M137.359 256.5 L1910.64 256.5"/><path fill="none" stroke="#ffffffff" stroke-width="3.333" d="M137.359 366.417 L1910.64 366.417"/><path fill="none" stroke="#ffffffff" stroke-width="3.333" d="M137.359 476.333 L1910.64 476.333"/><path fill="none" stroke="#ffffffff" stroke-width="3.333" d="M137.359 586.25 L1910.64 586.25"/><path fill="none" stroke="#ffffffff" stroke-width="3.333" d="M137.359 696.167 L1910.64 696.167"/><path fill="none" stroke="#ffffffff" stroke-width="3.333" d="M137.359 806.083 L1910.64 806.083"/><path fill="#444444ff" d="M237.799 916 L237.799 542.283 L274.466 542.283 L274.466 916 Z"/><path fill="#444444ff" d="M533.346 916 L533.346 498.317 L570.013 498.317 L570.013 916 Z"/><path fill="#444444ff" d="M828.893 916 L828.893 443.358 L865.56 443.358 L865.56 916 Z"/><path fill="#444444ff" d="M1124.44 916 L1124.44 553.275 L1161.11 553.275 L1161.11 916 Z"/><path fill="#444444ff" d="M1419.99 916 L1419.99 685.175 L1456.65 685.175 L1456.65 916 Z"/><path fill="#444444ff" d="M1715.53 916 L1715.53 553.275 L1752.2 553.275 L1752.2 916 Z"/><path fill="#999999ff" d="M295.799 916 L295.799 443.358 L332.466 443.358 L332.466 916 Z"/><path fill="#999999ff" d="M591.346 916 L591.346 201.542 L628.013 201.542 L628.013 916 Z"/><path fill="#999999ff" d="M886.893 916 L886.893 410.383 L923.56 410.383 L923.56 916 Z"/><path fill="#999999ff" d="M1182.44 916 L1182.44 498.317 L1219.11 498.317 L1219.11 916 Z"/><path fill="#999999ff" d="M1477.99 916 L1477.99 498.317 L1514.65 498.317 L1514.65 916 Z"/><path fill="#999999ff" d="M1773.53 916 L1773.53 311.458 L1810.2 311.458 L1810.2 916 Z"/><text x="1939.974" y="819.083" fill="#000000ff" font-family="Arial,Helvetica,'Helvetica Neue',sans-serif" font-size="36.667" font-weight="500">10.0</text><text x="1939.974" y="709.167" fill="#000000ff" font-family="Arial,Helvetica,'Helvetica Neue',sans-serif" font-size="36.667" font-weight="500">20.0</text><text x="1939.974" y="599.25" fill="#000000ff" font-family="Arial,Helvetica,'Helvetica Neue',sans-serif" font-size="36.667" font-weight="500">30.0</text><text x="1939.974" y="489.333" fill="#000000ff" font-family="Arial,Helvetica,'Helvetica Neue',sans-serif" font-size="36.667" font-weight="500">40.0</text><text x="1939.974" y="379.417" fill="#000000ff" font-family="Arial,Helvetica,'Helvetica Neue',sans-serif" font-size="36.667" font-weight="500">50.0</text><text x="1939.974" y="269.5" fill="#000000ff" font-family="Arial,Helvetica,'Helvetica Neue',sans-serif" font-size="36.667" font-weight="500">60.0</text><text x="1939.974" y="159.583" fill="#000000ff" font-family="Arial,Helvetica,'Helvetica Neue',sans-serif" font-size="36.667" font-weight="500">70.0</text><text x="272.906" y="979.333" fill="#000000ff" font-family="Arial,Helvetica,'Helvetica Neue',sans-serif" font-size="36.667" font-weight="500">A</text><text x="568.453" y="979.333" fill="#000000ff" font-family="Arial,Helvetica,'Helvetica Neue',sans-serif" font-size="36.667" font-weight="500">B</text><text x="862.984" y="979.333" fill="#000000ff" font-family="Arial,Helvetica,'Helvetica Neue',sans-serif" font-size="36.667" font-weight="500">C</text><text x="1158.531" y="979.333" fill="#000000ff" font-family="Arial,Helvetica,'Helvetica Neue',sans-serif" font-size="36.667" font-weight="500">D</text><text x="1455.094" y="979.333" fill="#000000ff" font-family="Arial,Helvetica,'Helvetica Neue',sans-serif" font-size="36.667" font-weight="500">E</text><text x="1751.664" y="979.333" fill="#000000ff" font-family="Arial,Helvetica,'Helvetica Neue',sans-serif" font-size="36.667" font-weight="500">F</text><text x="36.667" y="819.083" fill="#000000ff" font-family="Arial,Helvetica,'Helvetica Neue',sans-serif" font-size="36.667" font-weight="500">10.0</text><text x="36.667" y="709.167" fill="#000000ff" font-family="Arial,Helvetica,'Helvetica Neue',sans-serif" font-size="36.667" font-weight="500">20.0</text><text x="36.667" y="599.25" fill="#000000ff" font-family="Arial,Helvetica,'Helvetica Neue',sans-serif" font-size="36.667" font-weight="500">30.0</text><text x="36.667" y="489.333" fill="#000000ff" font-family="Arial,Helvetica,'Helvetica Neue',sans-serif" font-size="36.667" font-weight="500">40.0</text><text x="36.667" y="379.417" fill="#000000ff" font-family="Arial,Helvetica,'Helvetica Neue',sans-serif" font-size="36.667" font-weight="500">50.0</text><text x="36.667" y="269.5" fill="#000000ff" font-family="Arial,Helvetica,'Helvetica Neue',sans-serif" font-size="36.667" font-weight="500">60.0</text><text x="36.667" y="159.583" fill="#000000ff" font-family="Arial,Helvetica,'Helvetica Neue',sans-serif" font-size="36.667" font-weight="500">70.0</text></svg>