<svg xmlns="http://www.w3.org/2000/svg" width="900" height="300"><rect width="900" height="300" fill="#ffffffff"/><path fill="#666666ff" d="M181.347 255.6 L181.347 33.0881 L207.747 33.0881 L207.747 255.6 Z"/><path fill="#666666ff" d="M296.478 255.6 L296.478 156.021 L322.878 156.021 L322.878 255.6 Z"/><path fill="#666666ff" d="M411.609 255.6 L411.609 208.729 L438.009 208.729 L438.009 255.6 Z"/><path fill="#666666ff" d="M526.74 255.6 L526.74 219.336 L553.14 219.336 L553.14 255.6 Z"/><path fill="#666666ff" d="M641.871 255.6 L641.871 237.468 L668.271 237.468 L668.271 255.6 Z"/><path fill="#666666ff" d="M757.002 255.6 L757.002 255.6 L783.402 255.6 L783.402 255.6 Z"/><path fill="none" stroke="#000000ff" stroke-width="1.333" d="M79.4156 255.6 L885.333 255.6"/><path fill="none" stroke="#000000ff" stroke-width="1.333" d="M194.547 255.6 L194.547 250.267"/><path fill="none" stroke="#000000ff" stroke-width="1.333" d="M309.678 255.6 L309.678 250.267"/><path fill="none" stroke="#000000ff" stroke-width="1.333" d="M424.809 255.6 L424.809 250.267"/><path fill="none" stroke="#000000ff" stroke-width="1.333" d="M539.94 255.6 L539.94 250.267"/><path fill="none" stroke="#000000ff" stroke-width="1.333" d="M655.071 255.6 L655.071 250.267"/><path fill="none" stroke="#000000ff" stroke-width="1.333" d="M770.202 255.6 L770.202 250.267"/><text x="184.351" y="281.333" fill="#000000ff" font-family="Arial,Helvetica,'Helvetica Neue',sans-serif" font-size="14.667" font-weight="500">1.0</text><text x="299.483" y="281.333" fill="#000000ff" font-family="Arial,Helvetica,'Helvetica Neue',sans-serif" font-size="14.667" font-weight="500">2.0</text><text x="414.614" y="281.333" fill="#000000ff" font-family="Arial,Helvetica,'Helvetica Neue',sans-serif" font-size="14.667" font-weight="500">3.0</text><text x="529.745" y="281.333" fill="#000000ff" font-family="Arial,Helvetica,'Helvetica Neue',sans-serif" font-size="14.667" font-weight="500">4.0</text><text x="644.876" y="281.333" fill="#000000ff" font-family="Arial,Helvetica,'Helvetica Neue',sans-serif" font-size="14.667" font-weight="500">5.0</text><text x="760.007" y="281.333" fill="#000000ff" font-family="Arial,Helvetica,'Helvetica Neue',sans-serif" font-size="14.667" font-weight="500">6.0</text><path fill="none" stroke="#000000ff" stroke-width="1.333" d="M79.4156 255.6 L79.4156 14.6667"/><path fill="none" stroke="#000000ff" stroke-width="1.333" d="M79.4156 255.6 L84.749 255.6"/><path fill="none" stroke="#000000ff" stroke-width="1.333" d="M79.4156 237.468 L84.749 237.468"/><path fill="none" stroke="#000000ff" stroke-width="1.333" d="M79.4156 226.861 L84.749 226.861"/><path fill="none" stroke="#000000ff" stroke-width="1.333" d="M79.4156 219.336 L84.749 219.336"/><path fill="none" stroke="#000000ff" stroke-width="1.333" d="M79.4156 213.499 L84.749 213.499"/><path fill="none" stroke="#000000ff" stroke-width="1.333" d="M79.4156 208.729 L84.749 208.729"/><path fill="none" stroke="#000000ff" stroke-width="1.333" d="M79.4156 204.697 L84.749 204.697"/><path fill="none" stroke="#000000ff" stroke-width="1.333" d="M79.4156 201.204 L84.749 201.204"/><path fill="none" stroke="#000000ff" stroke-width="1.333" d="M79.4156 198.123 L84.749 198.123"/><path fill="none" stroke="#000000ff" stroke-width="1.333" d="M79.4156 195.367 L84.749 195.367"/><path fill="none" stroke="#000000ff" stroke-width="1.333" d="M79.4156 177.235 L84.749 177.235"/><path fill="none" stroke="#000000ff" stroke-width="1.333" d="M79.4156 166.628 L84.749 166.628"/><path fill="none" stroke="#000000ff" stroke-width="1.333" d="M79.4156 159.103 L84.749 159.103"/><path fill="none" stroke="#000000ff" stroke-width="1.333" d="M79.4156 153.265 L84.749 153.265"/><path fill="none" stroke="#000000ff" stroke-width="1.333" d="M79.4156 148.496 L84.749 148.496"/><path fill="none" stroke="#000000ff" stroke-width="1.333" d="M79.4156 144.464 L84.749 144.464"/><path fill="none" stroke="#000000ff" stroke-width="1.333" d="M79.4156 140.971 L84.749 140.971"/><path fill="none" stroke="#000000ff" stroke-width="1.333" d="M79.4156 137.889 L84.749 137.889"/><path fill="none" stroke="#000000ff" stroke-width="1.333" d="M79.4156 135.133 L84.749 135.133"/><path fill="none" stroke="#000000ff" stroke-width="1.333" d="M79.4156 117.001 L84.749 117.001"/><path fill="none" stroke="#000000ff" stroke-width="1.333" d="M79.4156 106.395 L84.749 106.395"/><path fill="none" stroke="#000000ff" stroke-width="1.333" d="M79.4156 98.8693 L84.749 98.8693"/><path fill="none" stroke="#000000ff" stroke-width="1.333" d="M79.4156 93.032 L84.749 93.032"/><path fill="none" stroke="#000000ff" stroke-width="1.333" d="M79.4156 88.2627 L84.749 88.2627"/><path fill="none" stroke="#000000ff" stroke-width="1.333" d="M79.4156 84.2303 L84.749 84.2303"/><path fill="none" stroke="#000000ff" stroke-width="1.333" d="M79.4156 80.7372 L84.749 80.7372"/><path fill="none" stroke="#000000ff" stroke-width="1.333" d="M79.4156 77.6561 L84.749 77.6561"/><path fill="none" stroke="#000000ff" stroke-width="1.333" d="M79.4156 74.9 L84.749 74.9"/><path fill="none" stroke="#000000ff" stroke-width="1.333" d="M79.4156 56.768 L84.749 56.768"/><path fill="none" stroke="#000000ff" stroke-width="1.333" d="M79.4156 46.1614 L84.749 46.1614"/><path fill="none" stroke="#000000ff" stroke-width="1.333" d="M79.4156 38.6359 L84.749 38.6359"/><path fill="none" stroke="#000000ff" stroke-width="1.333" d="M79.4156 32.7987 L84.749 32.7987"/><path fill="none" stroke="#000000ff" stroke-width="1.333" d="M79.4156 28.0294 L84.749 28.0294"/><path fill="none" stroke="#000000ff" stroke-width="1.333" d="M79.4156 23.9969 L84.749 23.9969"/><path fill="none" stroke="#000000ff" stroke-width="1.333" d="M79.4156 20.5039 L84.749 20.5039"/><path fill="none" stroke="#000000ff" stroke-width="1.333" d="M79.4156 17.4228 L84.749 17.4228"/><path fill="none" stroke="#000000ff" stroke-width="1.333" d="M79.4156 14.6667 L84.749 14.6667"/><text x="47.292" y="260.6" fill="#000000ff" font-family="Arial,Helvetica,'Helvetica Neue',sans-serif" font-size="14.667" font-weight="500">1.0</text><text x="39.135" y="200.367" fill="#000000ff" font-family="Arial,Helvetica,'Helvetica Neue',sans-serif" font-size="14.667" font-weight="500">10.0</text><text x="30.979" y="140.133" fill="#000000ff" font-family="Arial,Helvetica,'Helvetica Neue',sans-serif" font-size="14.667" font-weight="500">100.0</text><text x="22.823" y="79.9" fill="#000000ff" font-family="Arial,Helvetica,'Helvetica Neue',sans-serif" font-size="14.667" font-weight="500">1000.0</text><text x="14.667" y="19.667" fill="#000000ff" font-family="Arial,Helvetica,'Helvetica Neue',sans-serif" font-size="14.667" font-weight="500">10000.0</text></svg>