<svg xmlns="http://www.w3.org/2000/svg" width="900" height="80"><rect width="900" height="80" fill="#ffffffff"/><path fill="none" stroke="#000000ff" stroke-width="1.333" d="M29.3333 40 L870.667 40"/><path fill="none" stroke="#000000ff" stroke-width="1.333" d="M29.3333 42.6667 L29.3333 37.3333"/><path fill="none" stroke="#000000ff" stroke-width="1.333" d="M99.4444 42.6667 L99.4444 37.3333"/><path fill="none" stroke="#000000ff" stroke-width="1.333" d="M169.556 42.6667 L169.556 37.3333"/><path fill="none" stroke="#000000ff" stroke-width="1.333" d="M239.667 42.6667 L239.667 37.3333"/><path fill="none" stroke="#000000ff" stroke-width="1.333" d="M309.778 42.6667 L309.778 37.3333"/><path fill="none" stroke="#000000ff" stroke-width="1.333" d="M379.889 42.6667 L379.889 37.3333"/><path fill="none" stroke="#000000ff" stroke-width="1.333" d="M450 42.6667 L450 37.3333"/><path fill="none" stroke="#000000ff" stroke-width="1.333" d="M520.111 42.6667 L520.111 37.3333"/><path fill="none" stroke="#000000ff" stroke-width="1.333" d="M590.222 42.6667 L590.222 37.3333"/><path fill="none" stroke="#000000ff" stroke-width="1.333" d="M660.333 42.6667 L660.333 37.3333"/><path fill="none" stroke="#000000ff" stroke-width="1.333" d="M730.444 42.6667 L730.444 37.3333"/><path fill="none" stroke="#000000ff" stroke-width="1.333" d="M800.556 42.6667 L800.556 37.3333"/><path fill="none" stroke="#000000ff" stroke-width="1.333" d="M870.667 42.6667 L870.667 37.3333"/><text x="22.81" y="62.733" fill="#000000ff" font-family="Arial,Helvetica,'Helvetica Neue',sans-serif" font-size="14.667" font-weight="500">2⁰</text><text x="92.921" y="65.733" fill="#000000ff" font-family="Arial,Helvetica,'Helvetica Neue',sans-serif" font-size="14.667" font-weight="500">2¹</text><text x="163.032" y="65.733" fill="#000000ff" font-family="Arial,Helvetica,'Helvetica Neue',sans-serif" font-size="14.667" font-weight="500">2²</text><text x="233.143" y="65.733" fill="#000000ff" font-family="Arial,Helvetica,'Helvetica Neue',sans-serif" font-size="14.667" font-weight="500">2³</text><text x="303.254" y="62.733" fill="#000000ff" font-family="Arial,Helvetica,'Helvetica Neue',sans-serif" font-size="14.667" font-weight="500">2⁴</text><text x="373.365" y="62.733" fill="#000000ff" font-family="Arial,Helvetica,'Helvetica Neue',sans-serif" font-size="14.667" font-weight="500">2⁵</text><text x="443.477" y="62.733" fill="#000000ff" font-family="Arial,Helvetica,'Helvetica Neue',sans-serif" font-size="14.667" font-weight="500">2⁶</text><text x="513.588" y="62.733" fill="#000000ff" font-family="Arial,Helvetica,'Helvetica Neue',sans-serif" font-size="14.667" font-weight="500">2⁷</text><text x="583.699" y="62.733" fill="#000000ff" font-family="Arial,Helvetica,'Helvetica Neue',sans-serif" font-size="14.667" font-weight="500">2⁸</text><text x="653.81" y="62.733" fill="#000000ff" font-family="Arial,Helvetica,'Helvetica Neue',sans-serif" font-size="14.667" font-weight="500">2⁹</text><text x="721.476" y="62.733" fill="#000000ff" font-family="Arial,Helvetica,'Helvetica Neue',sans-serif" font-size="14.667" font-weight="500">2¹⁰</text><text x="791.587" y="65.733" fill="#000000ff" font-family="Arial,Helvetica,'Helvetica Neue',sans-serif" font-size="14.667" font-weight="500">2¹¹</text><text x="861.698" y="65.733" fill="#000000ff" font-family="Arial,Helvetica,'Helvetica Neue',sans-serif" font-size="14.667" font-weight="500">2¹²</text></svg>