<svg xmlns="http://www.w3.org/2000/svg" width="900" height="60"><rect width="900" height="60" fill="#ffffffff"/><path fill="none" stroke="#000000ff" stroke-width="1.333" d="M14.6667 30 L885.333 30"/><path fill="none" stroke="#000000ff" stroke-width="1.333" d="M14.6667 32.6667 L14.6667 27.3333"/><path fill="none" stroke="#000000ff" stroke-width="1.333" d="M72.7111 32.6667 L72.7111 27.3333"/><path fill="none" stroke="#000000ff" stroke-width="1.333" d="M130.756 32.6667 L130.756 27.3333"/><path fill="none" stroke="#000000ff" stroke-width="1.333" d="M188.8 32.6667 L188.8 27.3333"/><path fill="none" stroke="#000000ff" stroke-width="1.333" d="M246.844 32.6667 L246.844 27.3333"/><path fill="none" stroke="#000000ff" stroke-width="1.333" d="M304.889 32.6667 L304.889 27.3333"/><path fill="none" stroke="#000000ff" stroke-width="1.333" d="M362.933 32.6667 L362.933 27.3333"/><path fill="none" stroke="#000000ff" stroke-width="1.333" d="M420.978 32.6667 L420.978 27.3333"/><path fill="none" stroke="#000000ff" stroke-width="1.333" d="M479.022 32.6667 L479.022 27.3333"/><path fill="none" stroke="#000000ff" stroke-width="1.333" d="M537.067 32.6667 L537.067 27.3333"/><path fill="none" stroke="#000000ff" stroke-width="1.333" d="M595.111 32.6667 L595.111 27.3333"/><path fill="none" stroke="#000000ff" stroke-width="1.333" d="M653.156 32.6667 L653.156 27.3333"/><path fill="none" stroke="#000000ff" stroke-width="1.333" d="M711.2 32.6667 L711.2 27.3333"/><path fill="none" stroke="#000000ff" stroke-width="1.333" d="M769.244 32.6667 L769.244 27.3333"/><path fill="none" stroke="#000000ff" stroke-width="1.333" d="M827.289 32.6667 L827.289 27.3333"/><path fill="none" stroke="#000000ff" stroke-width="1.333" d="M885.333 32.6667 L885.333 27.3333"/><text x="10.589" y="55.733" fill="#000000ff" font-family="Arial,Helvetica,'Helvetica Neue',sans-serif" font-size="14.667" font-weight="500">1</text><text x="68.633" y="55.733" fill="#000000ff" font-family="Arial,Helvetica,'Helvetica Neue',sans-serif" font-size="14.667" font-weight="500">2</text><text x="126.677" y="55.733" fill="#000000ff" font-family="Arial,Helvetica,'Helvetica Neue',sans-serif" font-size="14.667" font-weight="500">3</text><text x="184.722" y="55.733" fill="#000000ff" font-family="Arial,Helvetica,'Helvetica Neue',sans-serif" font-size="14.667" font-weight="500">4</text><text x="242.766" y="55.733" fill="#000000ff" font-family="Arial,Helvetica,'Helvetica Neue',sans-serif" font-size="14.667" font-weight="500">5</text><text x="300.811" y="55.733" fill="#000000ff" font-family="Arial,Helvetica,'Helvetica Neue',sans-serif" font-size="14.667" font-weight="500">6</text><text x="358.855" y="55.733" fill="#000000ff" font-family="Arial,Helvetica,'Helvetica Neue',sans-serif" font-size="14.667" font-weight="500">7</text><text x="416.9" y="55.733" fill="#000000ff" font-family="Arial,Helvetica,'Helvetica Neue',sans-serif" font-size="14.667" font-weight="500">8</text><text x="474.944" y="55.733" fill="#000000ff" font-family="Arial,Helvetica,'Helvetica Neue',sans-serif" font-size="14.667" font-weight="500">9</text><text x="528.91" y="55.733" fill="#000000ff" font-family="Arial,Helvetica,'Helvetica Neue',sans-serif" font-size="14.667" font-weight="500">10</text><text x="587.502" y="55.733" fill="#000000ff" font-family="Arial,Helvetica,'Helvetica Neue',sans-serif" font-size="14.667" font-weight="500">11</text><text x="644.999" y="55.733" fill="#000000ff" font-family="Arial,Helvetica,'Helvetica Neue',sans-serif" font-size="14.667" font-weight="500">12</text><text x="703.044" y="55.733" fill="#000000ff" font-family="Arial,Helvetica,'Helvetica Neue',sans-serif" font-size="14.667" font-weight="500">13</text><text x="761.088" y="55.733" fill="#000000ff" font-family="Arial,Helvetica,'Helvetica Neue',sans-serif" font-size="14.667" font-weight="500">14</text><text x="819.133" y="55.733" fill="#000000ff" font-family="Arial,Helvetica,'Helvetica Neue',sans-serif" font-size="14.667" font-weight="500">15</text><text x="877.177" y="55.733" fill="#000000ff" font-family="Arial,Helvetica,'Helvetica Neue',sans-serif" font-size="14.667" font-weight="500">16</text></svg>