<svg xmlns="http://www.w3.org/2000/svg" width="900" height="480"><rect width="900" height="480" fill="#ffffffff"/><path fill="#000000ff" d="M29.3333 37.3333 C24.9151 37.3333 21.3333 33.7516 21.3333 29.3333 C21.3333 24.9151 24.9151 21.3333 29.3333 21.3333 C33.7516 21.3333 37.3333 24.9151 37.3333 29.3333 C37.3333 33.7516 33.7516 37.3333 29.3333 37.3333 Z"/><path fill="none" stroke="#000000ff" stroke-width="1.6" d="M149.524 37.3333 C145.106 37.3333 141.524 33.7516 141.524 29.3333 C141.524 24.9151 145.106 21.3333 149.524 21.3333 C153.942 21.3333 157.524 24.9151 157.524 29.3333 C157.524 33.7516 153.942 37.3333 149.524 37.3333 Z"/><text x="263.917" y="35.833" fill="#000000ff" font-family="Arial,Helvetica,'Helvetica Neue',sans-serif" font-size="19.2" font-weight="500">■</text><text x="384.108" y="35.833" fill="#000000ff" font-family="Arial,Helvetica,'Helvetica Neue',sans-serif" font-size="19.2" font-weight="500">□</text><text x="501.033" y="35.833" fill="#000000ff" font-family="Arial,Helvetica,'Helvetica Neue',sans-serif" font-size="19.2" font-weight="500">◧</text><text x="621.223" y="35.833" fill="#000000ff" font-family="Arial,Helvetica,'Helvetica Neue',sans-serif" font-size="19.2" font-weight="500">◨</text><text x="742.101" y="35.833" fill="#000000ff" font-family="Arial,Helvetica,'Helvetica Neue',sans-serif" font-size="19.2" font-weight="500">⬢</text><text x="862.292" y="35.833" fill="#000000ff" font-family="Arial,Helvetica,'Helvetica Neue',sans-serif" font-size="19.2" font-weight="500">⬡</text><text x="12.201" y="22.4" fill="#000000ff" font-family="Arial,Helvetica,'Helvetica Neue',sans-serif" font-size="14.667" font-weight="500">circle</text><text x="125.868" y="22.4" fill="#000000ff" font-family="Arial,Helvetica,'Helvetica Neue',sans-serif" font-size="14.667" font-weight="500">circle-o</text><text x="247.285" y="22.4" fill="#000000ff" font-family="Arial,Helvetica,'Helvetica Neue',sans-serif" font-size="14.667" font-weight="500">square</text><text x="360.952" y="22.4" fill="#000000ff" font-family="Arial,Helvetica,'Helvetica Neue',sans-serif" font-size="14.667" font-weight="500">square-o</text><text x="475.431" y="22.4" fill="#000000ff" font-family="Arial,Helvetica,'Helvetica Neue',sans-serif" font-size="14.667" font-weight="500">square-left</text><text x="591.137" y="22.4" fill="#000000ff" font-family="Arial,Helvetica,'Helvetica Neue',sans-serif" font-size="14.667" font-weight="500">square-right</text><text x="722.336" y="22.4" fill="#000000ff" font-family="Arial,Helvetica,'Helvetica Neue',sans-serif" font-size="14.667" font-weight="500">hexagon</text><text x="836.003" y="22.4" fill="#000000ff" font-family="Arial,Helvetica,'Helvetica Neue',sans-serif" font-size="14.667" font-weight="500">hexagon-o</text></svg>