<svg xmlns="http://www.w3.org/2000/svg" width="900" height="60"><rect width="900" height="60" fill="#ffffffff"/><path fill="none" stroke="#000000ff" stroke-width="1.333" d="M14.6667 30 L885.333 30"/><path fill="none" stroke="#000000ff" stroke-width="1.333" d="M14.6667 32.6667 L14.6667 27.3333"/><path fill="none" stroke="#000000ff" stroke-width="1.333" d="M123.5 32.6667 L123.5 27.3333"/><path fill="none" stroke="#000000ff" stroke-width="1.333" d="M232.333 32.6667 L232.333 27.3333"/><path fill="none" stroke="#000000ff" stroke-width="1.333" d="M341.167 32.6667 L341.167 27.3333"/><path fill="none" stroke="#000000ff" stroke-width="1.333" d="M450 32.6667 L450 27.3333"/><path fill="none" stroke="#000000ff" stroke-width="1.333" d="M558.833 32.6667 L558.833 27.3333"/><path fill="none" stroke="#000000ff" stroke-width="1.333" d="M667.667 32.6667 L667.667 27.3333"/><path fill="none" stroke="#000000ff" stroke-width="1.333" d="M776.5 32.6667 L776.5 27.3333"/><path fill="none" stroke="#000000ff" stroke-width="1.333" d="M885.333 32.6667 L885.333 27.3333"/><text x="64.193" y="55.733" fill="#000000ff" font-family="Arial,Helvetica,'Helvetica Neue',sans-serif" font-size="14.667" font-weight="500">A</text><text x="173.026" y="55.733" fill="#000000ff" font-family="Arial,Helvetica,'Helvetica Neue',sans-serif" font-size="14.667" font-weight="500">B</text><text x="281.453" y="55.733" fill="#000000ff" font-family="Arial,Helvetica,'Helvetica Neue',sans-serif" font-size="14.667" font-weight="500">C</text><text x="390.286" y="55.733" fill="#000000ff" font-family="Arial,Helvetica,'Helvetica Neue',sans-serif" font-size="14.667" font-weight="500">D</text><text x="499.526" y="55.733" fill="#000000ff" font-family="Arial,Helvetica,'Helvetica Neue',sans-serif" font-size="14.667" font-weight="500">E</text><text x="608.766" y="55.733" fill="#000000ff" font-family="Arial,Helvetica,'Helvetica Neue',sans-serif" font-size="14.667" font-weight="500">F</text><text x="716.38" y="55.733" fill="#000000ff" font-family="Arial,Helvetica,'Helvetica Neue',sans-serif" font-size="14.667" font-weight="500">G</text><text x="825.62" y="55.733" fill="#000000ff" font-family="Arial,Helvetica,'Helvetica Neue',sans-serif" font-size="14.667" font-weight="500">H</text></svg>