<svg xmlns="http://www.w3.org/2000/svg" width="900" height="60"><rect width="900" height="60" fill="#ffffffff"/><path fill="none" stroke="#000000ff" stroke-width="1.333" d="M14.6667 30 L885.333 30"/><path fill="none" stroke="#000000ff" stroke-width="1.333" d="M14.6667 32.6667 L14.6667 27.3333"/><path fill="none" stroke="#000000ff" stroke-width="1.333" d="M87.2222 32.6667 L87.2222 27.3333"/><path fill="none" stroke="#000000ff" stroke-width="1.333" d="M159.778 32.6667 L159.778 27.3333"/><path fill="none" stroke="#000000ff" stroke-width="1.333" d="M232.333 32.6667 L232.333 27.3333"/><path fill="none" stroke="#000000ff" stroke-width="1.333" d="M304.889 32.6667 L304.889 27.3333"/><path fill="none" stroke="#000000ff" stroke-width="1.333" d="M377.444 32.6667 L377.444 27.3333"/><path fill="none" stroke="#000000ff" stroke-width="1.333" d="M450 32.6667 L450 27.3333"/><path fill="none" stroke="#000000ff" stroke-width="1.333" d="M522.556 32.6667 L522.556 27.3333"/><path fill="none" stroke="#000000ff" stroke-width="1.333" d="M595.111 32.6667 L595.111 27.3333"/><path fill="none" stroke="#000000ff" stroke-width="1.333" d="M667.667 32.6667 L667.667 27.3333"/><path fill="none" stroke="#000000ff" stroke-width="1.333" d="M740.222 32.6667 L740.222 27.3333"/><path fill="none" stroke="#000000ff" stroke-width="1.333" d="M812.778 32.6667 L812.778 27.3333"/><path fill="none" stroke="#000000ff" stroke-width="1.333" d="M885.333 32.6667 L885.333 27.3333"/><text x="4.471" y="55.733" fill="#000000ff" font-family="Arial,Helvetica,'Helvetica Neue',sans-serif" font-size="14.667" font-weight="500">1.0</text><text x="77.027" y="55.733" fill="#000000ff" font-family="Arial,Helvetica,'Helvetica Neue',sans-serif" font-size="14.667" font-weight="500">2.0</text><text x="149.582" y="55.733" fill="#000000ff" font-family="Arial,Helvetica,'Helvetica Neue',sans-serif" font-size="14.667" font-weight="500">4.0</text><text x="222.138" y="55.733" fill="#000000ff" font-family="Arial,Helvetica,'Helvetica Neue',sans-serif" font-size="14.667" font-weight="500">8.0</text><text x="290.615" y="55.733" fill="#000000ff" font-family="Arial,Helvetica,'Helvetica Neue',sans-serif" font-size="14.667" font-weight="500">16.0</text><text x="363.171" y="55.733" fill="#000000ff" font-family="Arial,Helvetica,'Helvetica Neue',sans-serif" font-size="14.667" font-weight="500">32.0</text><text x="435.727" y="55.733" fill="#000000ff" font-family="Arial,Helvetica,'Helvetica Neue',sans-serif" font-size="14.667" font-weight="500">64.0</text><text x="504.204" y="55.733" fill="#000000ff" font-family="Arial,Helvetica,'Helvetica Neue',sans-serif" font-size="14.667" font-weight="500">128.0</text><text x="576.76" y="55.733" fill="#000000ff" font-family="Arial,Helvetica,'Helvetica Neue',sans-serif" font-size="14.667" font-weight="500">256.0</text><text x="649.315" y="55.733" fill="#000000ff" font-family="Arial,Helvetica,'Helvetica Neue',sans-serif" font-size="14.667" font-weight="500">512.0</text><text x="717.793" y="55.733" fill="#000000ff" font-family="Arial,Helvetica,'Helvetica Neue',sans-serif" font-size="14.667" font-weight="500">1024.0</text><text x="790.348" y="55.733" fill="#000000ff" font-family="Arial,Helvetica,'Helvetica Neue',sans-serif" font-size="14.667" font-weight="500">2048.0</text><text x="862.904" y="55.733" fill="#000000ff" font-family="Arial,Helvetica,'Helvetica Neue',sans-serif" font-size="14.667" font-weight="500">4096.0</text></svg>