<svg xmlns="http://www.w3.org/2000/svg" width="900" height="60"><rect width="900" height="60" fill="#ffffffff"/><path fill="none" stroke="#000000ff" stroke-width="1.333" d="M14.6667 30 L885.333 30"/><path fill="none" stroke="#000000ff" stroke-width="1.333" d="M14.6667 32.6667 L14.6667 27.3333"/><path fill="none" stroke="#000000ff" stroke-width="1.333" d="M101.733 32.6667 L101.733 27.3333"/><path fill="none" stroke="#000000ff" stroke-width="1.333" d="M188.8 32.6667 L188.8 27.3333"/><path fill="none" stroke="#000000ff" stroke-width="1.333" d="M275.867 32.6667 L275.867 27.3333"/><path fill="none" stroke="#000000ff" stroke-width="1.333" d="M362.933 32.6667 L362.933 27.3333"/><path fill="none" stroke="#000000ff" stroke-width="1.333" d="M450 32.6667 L450 27.3333"/><path fill="none" stroke="#000000ff" stroke-width="1.333" d="M537.067 32.6667 L537.067 27.3333"/><path fill="none" stroke="#000000ff" stroke-width="1.333" d="M624.133 32.6667 L624.133 27.3333"/><path fill="none" stroke="#000000ff" stroke-width="1.333" d="M711.2 32.6667 L711.2 27.3333"/><path fill="none" stroke="#000000ff" stroke-width="1.333" d="M798.267 32.6667 L798.267 27.3333"/><path fill="none" stroke="#000000ff" stroke-width="1.333" d="M885.333 32.6667 L885.333 27.3333"/><text x="4.471" y="55.733" fill="#000000ff" font-family="Arial,Helvetica,'Helvetica Neue',sans-serif" font-size="14.667" font-weight="500">1.0</text><text x="91.538" y="55.733" fill="#000000ff" font-family="Arial,Helvetica,'Helvetica Neue',sans-serif" font-size="14.667" font-weight="500">2.0</text><text x="178.605" y="55.733" fill="#000000ff" font-family="Arial,Helvetica,'Helvetica Neue',sans-serif" font-size="14.667" font-weight="500">4.0</text><text x="265.671" y="55.733" fill="#000000ff" font-family="Arial,Helvetica,'Helvetica Neue',sans-serif" font-size="14.667" font-weight="500">8.0</text><text x="348.66" y="55.733" fill="#000000ff" font-family="Arial,Helvetica,'Helvetica Neue',sans-serif" font-size="14.667" font-weight="500">16.0</text><text x="435.727" y="55.733" fill="#000000ff" font-family="Arial,Helvetica,'Helvetica Neue',sans-serif" font-size="14.667" font-weight="500">32.0</text><text x="522.793" y="55.733" fill="#000000ff" font-family="Arial,Helvetica,'Helvetica Neue',sans-serif" font-size="14.667" font-weight="500">64.0</text><text x="605.782" y="55.733" fill="#000000ff" font-family="Arial,Helvetica,'Helvetica Neue',sans-serif" font-size="14.667" font-weight="500">128.0</text><text x="692.848" y="55.733" fill="#000000ff" font-family="Arial,Helvetica,'Helvetica Neue',sans-serif" font-size="14.667" font-weight="500">256.0</text><text x="779.915" y="55.733" fill="#000000ff" font-family="Arial,Helvetica,'Helvetica Neue',sans-serif" font-size="14.667" font-weight="500">512.0</text><text x="862.904" y="55.733" fill="#000000ff" font-family="Arial,Helvetica,'Helvetica Neue',sans-serif" font-size="14.667" font-weight="500">1024.0</text></svg>