<svg xmlns="http://www.w3.org/2000/svg" width="900" height="60"><rect width="900" height="60" fill="#ffffffff"/><path fill="none" stroke="#000000ff" stroke-width="1.333" d="M14.6667 30 L885.333 30"/><path fill="none" stroke="#000000ff" stroke-width="1.333" d="M123.5 32.6667 L123.5 27.3333"/><path fill="none" stroke="#000000ff" stroke-width="1.333" d="M177.917 32.6667 L177.917 27.3333"/><path fill="none" stroke="#000000ff" stroke-width="1.333" d="M232.333 32.6667 L232.333 27.3333"/><path fill="none" stroke="#000000ff" stroke-width="1.333" d="M286.75 32.6667 L286.75 27.3333"/><path fill="none" stroke="#000000ff" stroke-width="1.333" d="M341.167 32.6667 L341.167 27.3333"/><path fill="none" stroke="#000000ff" stroke-width="1.333" d="M395.583 32.6667 L395.583 27.3333"/><path fill="none" stroke="#000000ff" stroke-width="1.333" d="M450 32.6667 L450 27.3333"/><path fill="none" stroke="#000000ff" stroke-width="1.333" d="M504.417 32.6667 L504.417 27.3333"/><path fill="none" stroke="#000000ff" stroke-width="1.333" d="M558.833 32.6667 L558.833 27.3333"/><path fill="none" stroke="#000000ff" stroke-width="1.333" d="M613.25 32.6667 L613.25 27.3333"/><path fill="none" stroke="#000000ff" stroke-width="1.333" d="M667.667 32.6667 L667.667 27.3333"/><path fill="none" stroke="#000000ff" stroke-width="1.333" d="M722.083 32.6667 L722.083 27.3333"/><path fill="none" stroke="#000000ff" stroke-width="1.333" d="M776.5 32.6667 L776.5 27.3333"/><text x="113.305" y="55.733" fill="#000000ff" font-family="Arial,Helvetica,'Helvetica Neue',sans-serif" font-size="14.667" font-weight="500">2.0</text><text x="167.721" y="55.733" fill="#000000ff" font-family="Arial,Helvetica,'Helvetica Neue',sans-serif" font-size="14.667" font-weight="500">3.0</text><text x="222.138" y="55.733" fill="#000000ff" font-family="Arial,Helvetica,'Helvetica Neue',sans-serif" font-size="14.667" font-weight="500">4.0</text><text x="276.555" y="55.733" fill="#000000ff" font-family="Arial,Helvetica,'Helvetica Neue',sans-serif" font-size="14.667" font-weight="500">5.0</text><text x="330.971" y="55.733" fill="#000000ff" font-family="Arial,Helvetica,'Helvetica Neue',sans-serif" font-size="14.667" font-weight="500">6.0</text><text x="385.388" y="55.733" fill="#000000ff" font-family="Arial,Helvetica,'Helvetica Neue',sans-serif" font-size="14.667" font-weight="500">7.0</text><text x="439.805" y="55.733" fill="#000000ff" font-family="Arial,Helvetica,'Helvetica Neue',sans-serif" font-size="14.667" font-weight="500">8.0</text><text x="494.221" y="55.733" fill="#000000ff" font-family="Arial,Helvetica,'Helvetica Neue',sans-serif" font-size="14.667" font-weight="500">9.0</text><text x="544.56" y="55.733" fill="#000000ff" font-family="Arial,Helvetica,'Helvetica Neue',sans-serif" font-size="14.667" font-weight="500">10.0</text><text x="599.523" y="55.733" fill="#000000ff" font-family="Arial,Helvetica,'Helvetica Neue',sans-serif" font-size="14.667" font-weight="500">11.0</text><text x="653.393" y="55.733" fill="#000000ff" font-family="Arial,Helvetica,'Helvetica Neue',sans-serif" font-size="14.667" font-weight="500">12.0</text><text x="707.81" y="55.733" fill="#000000ff" font-family="Arial,Helvetica,'Helvetica Neue',sans-serif" font-size="14.667" font-weight="500">13.0</text><text x="762.227" y="55.733" fill="#000000ff" font-family="Arial,Helvetica,'Helvetica Neue',sans-serif" font-size="14.667" font-weight="500">14.0</text></svg>